M48
;DRILL file {PCBnew (20080825c)} date 16/9/2012-20:57:19
;FORMAT={-.-/ absolute / metric / decimal}
R,T
VER,1
FMAT,2
METRIC,TZ
TCST,OFF
ICI,OFF
ATC,ON
T1C0.635
T2C0.813
T3C1.016
%
M47
G05
M71
T1
X54.610Y-30.480
X55.880Y-29.210
X67.945Y-57.785
X69.850Y-59.055
X78.105Y-51.435
X80.645Y-53.975
X83.820Y-56.515
X90.170Y-34.290
X90.170Y-43.180
X90.170Y-55.880
X90.170Y-66.040
T2
X40.640Y-36.830
X43.180Y-36.830
X45.720Y-36.830
X48.260Y-36.830
X52.070Y-49.530
X52.070Y-52.070
X52.070Y-54.610
X52.070Y-57.150
X52.070Y-59.690
X52.070Y-62.230
X52.070Y-64.770
X52.070Y-67.310
X53.340Y-26.670
X54.610Y-36.830
X55.880Y-26.670
X56.515Y-74.295
X57.150Y-36.830
X58.166Y-26.670
X59.055Y-74.295
X59.690Y-36.830
X60.706Y-26.670
X62.230Y-36.830
X62.230Y-74.930
X63.246Y-26.670
X64.770Y-36.830
X64.770Y-74.930
X65.786Y-26.670
X67.310Y-36.830
X67.310Y-74.930
X68.326Y-26.670
X69.850Y-36.830
X69.850Y-74.930
X70.866Y-26.670
X72.390Y-36.830
X72.390Y-74.930
X73.406Y-26.670
X74.930Y-74.930
X75.946Y-26.670
X77.470Y-74.930
X80.010Y-26.670
X80.010Y-74.930
X82.550Y-26.670
X85.090Y-26.670
X85.090Y-74.930
X87.630Y-26.670
X87.630Y-74.930
X90.170Y-26.670
X90.170Y-74.930
X92.710Y-26.670
X92.710Y-74.930
X95.250Y-26.670
X95.250Y-74.930
X96.520Y-34.290
X96.520Y-36.830
X96.520Y-43.180
X96.520Y-45.720
X96.520Y-53.340
X96.520Y-55.880
X96.520Y-58.420
X96.520Y-63.500
X96.520Y-66.040
X96.520Y-68.580
X97.790Y-26.670
X97.790Y-74.930
T3
X76.200Y-63.500
X76.200Y-66.040
X78.740Y-63.500
X78.740Y-66.040
X81.280Y-63.500
X81.280Y-66.040
X83.820Y-63.500
X83.820Y-66.040
T0
M30
