M48
;DRILL file {PCBNEW (2007-02-16)} date 27/12/2012-13:34:56
;FORMAT={3:2 / absolute / millimetres / Format décimal}
R,T
VER,1
FMAT,2
METRIC,TZ
TCST,OFF
ICI,OFF
ATC,ON
T1C0.813
T2C1.143
T3C1.270
T4C1.524
T5C3.048
T6C3.175
%
M47
G05
M71
T1
X71.882Y-49.530
X71.882Y-46.990
X71.882Y-44.450
X71.882Y-41.910
X71.882Y-39.370
X71.882Y-36.830
X71.882Y-34.290
X71.882Y-31.750
X64.262Y-31.750
X64.262Y-34.290
X64.262Y-36.830
X64.262Y-39.370
X64.262Y-41.910
X64.262Y-44.450
X64.262Y-46.990
X64.262Y-49.530
X95.758Y-68.326
X93.218Y-68.326
X90.678Y-68.326
X83.058Y-68.326
X85.598Y-68.326
X88.138Y-68.326
X77.978Y-68.326
X75.438Y-68.326
X72.898Y-68.326
X67.818Y-68.326
X65.278Y-68.326
X95.758Y-20.066
X93.218Y-20.066
X90.678Y-20.066
X88.138Y-20.066
X85.598Y-20.066
X83.058Y-20.066
X80.518Y-20.066
X77.978Y-20.066
X73.914Y-20.066
X71.374Y-20.066
X68.834Y-20.066
X66.294Y-20.066
X63.754Y-20.066
X61.214Y-20.066
X58.674Y-20.066
X56.134Y-20.066
X70.358Y-68.326
X53.848Y-20.066
X51.308Y-20.066
X35.560Y-62.230
X35.560Y-64.770
X48.260Y-62.230
X48.260Y-64.770
X76.454Y-41.402
X76.454Y-36.322
X61.214Y-34.290
X61.214Y-39.370
X74.422Y-54.610
X74.422Y-49.530
X60.325Y-67.945
X57.785Y-67.945
X91.186Y-43.434
X96.266Y-40.894
X83.566Y-40.894
X91.186Y-49.530
X96.266Y-46.990
X83.566Y-46.990
X91.186Y-55.626
X96.266Y-53.086
X83.566Y-53.086
X52.070Y-56.515
X52.070Y-66.675
X76.962Y-57.658
X76.962Y-47.498
X66.802Y-60.198
X76.962Y-60.198
X62.865Y-56.515
X62.865Y-66.675
X52.070Y-69.215
X54.610Y-69.215
X88.138Y-23.622
X90.678Y-23.622
X93.218Y-23.622
X61.214Y-41.910
X61.214Y-44.450
T2
X39.370Y-62.230
X41.910Y-62.230
X44.450Y-62.230
T3
X25.146Y-26.670
T4
X21.971Y-23.495
X28.321Y-23.495
X21.971Y-29.845
X28.321Y-29.845
X19.558Y-63.246
X19.558Y-68.326
T5
X41.910Y-45.720
T6
X98.298Y-63.246
X98.298Y-35.306
X47.498Y-20.066
T0
M30
