G04 (Genere par PCBNEW (2007-02-16)) le 27/12/2012-13:22:40*
G01*
G70*
G90*
%MOIN*%
G04 Gerber Fmt 3.4, Leading zero omitted, Abs format*
%FSLAX34Y34*%
G04 APERTURE LIST*
%ADD10R,0.090000X0.062000*%
%ADD11O,0.090000X0.062000*%
%ADD12O,0.060000X0.100000*%
%ADD13C,0.155000*%
%ADD14C,0.150000*%
%ADD15C,0.140000*%
%ADD16R,0.100000X0.100000*%
%ADD17C,0.100000*%
%ADD18R,0.055000X0.055000*%
%ADD19C,0.055000*%
%ADD20R,0.350000X0.350000*%
%ADD21C,0.070000*%
%ADD22R,0.070000X0.070000*%
%ADD23C,0.088200*%
%ADD24R,0.088200X0.088200*%
%ADD25C,0.060000*%
%ADD26R,0.080000X0.140000*%
%ADD27C,0.039400*%
%ADD28C,0.017000*%
%ADD29C,0.010000*%
G04 APERTURE END LIST*
G54D10*
X28300Y-19500D03*
G54D11*
X28300Y-18500D03*
X28300Y-17500D03*
X28300Y-16500D03*
X28300Y-15500D03*
X28300Y-14500D03*
X28300Y-13500D03*
X28300Y-12500D03*
X25300Y-12500D03*
X25300Y-13500D03*
X25300Y-14500D03*
X25300Y-15500D03*
X25300Y-16500D03*
X25300Y-17500D03*
X25300Y-18500D03*
X25300Y-19500D03*
G54D12*
X37700Y-26900D03*
X36700Y-26900D03*
X35700Y-26900D03*
X32700Y-26900D03*
X33700Y-26900D03*
X34700Y-26900D03*
X30700Y-26900D03*
X29700Y-26900D03*
X28700Y-26900D03*
X26700Y-26900D03*
X25700Y-26900D03*
X37700Y-07900D03*
X36700Y-07900D03*
X35700Y-07900D03*
X34700Y-07900D03*
X33700Y-07900D03*
X32700Y-07900D03*
X31700Y-07900D03*
X30700Y-07900D03*
X29100Y-07900D03*
X28100Y-07900D03*
X27100Y-07900D03*
X26100Y-07900D03*
X25100Y-07900D03*
X24100Y-07900D03*
X23100Y-07900D03*
X22100Y-07900D03*
X27700Y-26900D03*
G54D13*
X38700Y-24900D03*
X38700Y-13900D03*
X18700Y-07900D03*
G54D12*
X21200Y-07900D03*
X20200Y-07900D03*
G54D14*
X08650Y-09250D03*
G54D15*
X09900Y-10500D03*
G54D14*
X11150Y-09250D03*
X08650Y-11750D03*
X11150Y-11750D03*
G54D16*
X07700Y-24900D03*
G54D17*
X07700Y-26900D03*
G54D18*
X14000Y-24500D03*
G54D19*
X14000Y-25500D03*
G54D18*
X19000Y-24500D03*
G54D19*
X19000Y-25500D03*
X30100Y-16300D03*
X30100Y-14300D03*
X24100Y-13500D03*
X24100Y-15500D03*
X29300Y-21500D03*
X29300Y-19500D03*
G54D18*
X23750Y-26750D03*
G54D19*
X22750Y-26750D03*
G54D20*
X16500Y-18000D03*
G54D21*
X15500Y-24500D03*
G54D22*
X16500Y-24500D03*
G54D21*
X17500Y-24500D03*
G54D23*
X35900Y-17100D03*
G54D24*
X37900Y-16100D03*
G54D23*
X32900Y-16100D03*
X35900Y-19500D03*
G54D24*
X37900Y-18500D03*
G54D23*
X32900Y-18500D03*
X35900Y-21900D03*
G54D24*
X37900Y-20900D03*
G54D23*
X32900Y-20900D03*
G54D25*
X20500Y-22250D03*
X20500Y-26250D03*
X30300Y-22700D03*
X30300Y-18700D03*
X26300Y-23700D03*
X30300Y-23700D03*
X24750Y-22250D03*
X24750Y-26250D03*
G54D18*
X20500Y-27250D03*
G54D19*
X21500Y-27250D03*
G54D18*
X34700Y-09300D03*
G54D19*
X35700Y-09300D03*
X36700Y-09300D03*
G54D26*
X10000Y-26900D03*
X12000Y-26900D03*
X10000Y-24800D03*
X12000Y-24800D03*
X07200Y-22900D03*
X09200Y-22900D03*
G54D19*
X24100Y-16500D03*
X24100Y-17500D03*
G54D27*
X12000Y-26900D02*
X13500Y-26900D01*
X13500Y-26900D02*
X13600Y-26900D01*
X14000Y-26500D02*
X14000Y-25500D01*
X13600Y-26900D02*
X14000Y-26500D01*
X12000Y-26900D02*
X16000Y-26900D01*
X16000Y-26900D02*
X16100Y-26900D01*
X16500Y-26500D02*
X16500Y-24500D01*
X16100Y-26900D02*
X16500Y-26500D01*
X16000Y-26900D02*
X18500Y-26900D01*
X18600Y-26900D02*
X19000Y-26500D01*
X19000Y-26500D02*
X19000Y-25500D01*
X18500Y-26900D02*
X18600Y-26900D01*
G54D28*
X21500Y-27250D02*
X22500Y-27250D01*
X22750Y-27000D02*
X22750Y-26750D01*
X22500Y-27250D02*
X22750Y-27000D01*
X21500Y-27250D02*
X21500Y-25750D01*
X21250Y-25500D02*
X19000Y-25500D01*
X21500Y-25750D02*
X21250Y-25500D01*
X24100Y-15500D02*
X25300Y-15500D01*
X28300Y-19500D02*
X29300Y-19500D01*
X29300Y-19500D02*
X30100Y-19500D01*
X30300Y-19300D02*
X30300Y-18700D01*
X30100Y-19500D02*
X30300Y-19300D01*
G54D27*
X28300Y-19500D02*
X28300Y-22300D01*
X28300Y-22300D02*
X28700Y-22700D01*
X28700Y-22700D02*
X28700Y-26900D01*
X11150Y-11750D02*
X08650Y-11750D01*
X08650Y-09250D02*
X08650Y-11750D01*
X08650Y-09250D02*
X11150Y-09250D01*
X11150Y-09250D02*
X22450Y-09250D01*
X23100Y-08600D02*
X23100Y-07900D01*
X22450Y-09250D02*
X23100Y-08600D01*
X11150Y-11750D02*
X18150Y-11750D01*
X21900Y-15500D02*
X24100Y-15500D01*
X18150Y-11750D02*
X21900Y-15500D01*
X37900Y-18500D02*
X37900Y-16100D01*
X28700Y-26900D02*
X28700Y-25700D01*
X38500Y-18500D02*
X37900Y-18500D01*
X39200Y-19200D02*
X38500Y-18500D01*
X39200Y-22600D02*
X39200Y-19200D01*
X36900Y-24900D02*
X39200Y-22600D01*
X29500Y-24900D02*
X36900Y-24900D01*
X28700Y-25700D02*
X29500Y-24900D01*
X25300Y-15500D02*
X25600Y-15500D01*
X26500Y-19500D02*
X28300Y-19500D01*
X26200Y-19200D02*
X26500Y-19500D01*
X26200Y-16100D02*
X26200Y-19200D01*
X25600Y-15500D02*
X26200Y-16100D01*
X16500Y-24500D02*
X16500Y-18000D01*
X25800Y-10500D02*
X09900Y-10500D01*
X26900Y-11600D02*
X25800Y-10500D01*
X26900Y-17800D02*
X26900Y-11600D01*
X27600Y-18500D02*
X26900Y-17800D01*
X28300Y-18500D02*
X27600Y-18500D01*
G54D28*
X28300Y-17500D02*
X29300Y-17500D01*
X29300Y-17500D02*
X30700Y-17500D01*
X31800Y-20900D02*
X32900Y-20900D01*
X31200Y-20300D02*
X31800Y-20900D01*
X31200Y-18000D02*
X31200Y-20300D01*
X30700Y-17500D02*
X31200Y-18000D01*
G54D27*
X17500Y-24500D02*
X19000Y-24500D01*
X19000Y-24500D02*
X19750Y-24500D01*
X20000Y-24500D02*
X20500Y-24000D01*
X20500Y-24000D02*
X20500Y-22250D01*
X19750Y-24500D02*
X20000Y-24500D01*
X19000Y-24500D02*
X24300Y-24500D01*
X24750Y-24050D02*
X24750Y-22250D01*
X24300Y-24500D02*
X24750Y-24050D01*
X19000Y-24500D02*
X25900Y-24500D01*
X26300Y-24100D02*
X26300Y-23700D01*
X25900Y-24500D02*
X26300Y-24100D01*
G54D28*
X28300Y-15500D02*
X29800Y-15500D01*
X30100Y-15800D02*
X30100Y-16300D01*
X29800Y-15500D02*
X30100Y-15800D01*
X29900Y-14500D02*
X30100Y-14300D01*
X28300Y-14500D02*
X29900Y-14500D01*
X35900Y-19500D02*
X33900Y-19500D01*
X33900Y-19500D02*
X32900Y-18500D01*
X28300Y-13500D02*
X30600Y-13500D01*
X31200Y-14100D02*
X31200Y-15900D01*
X30600Y-13500D02*
X31200Y-14100D01*
X31200Y-15900D02*
X31200Y-16000D01*
X32000Y-18500D02*
X32900Y-18500D01*
X31700Y-18200D02*
X32000Y-18500D01*
X31700Y-16500D02*
X31700Y-18200D01*
X31200Y-16000D02*
X31700Y-16500D01*
X31000Y-12500D02*
X31600Y-13100D01*
X33900Y-17100D02*
X32900Y-16100D01*
X35900Y-17100D02*
X33900Y-17100D01*
X28300Y-12500D02*
X31000Y-12500D01*
X32000Y-16100D02*
X32900Y-16100D01*
X31600Y-15700D02*
X32000Y-16100D01*
X31600Y-13100D02*
X31600Y-15700D01*
X24100Y-13500D02*
X25300Y-13500D01*
X25300Y-16500D02*
X24100Y-16500D01*
X25300Y-17500D02*
X24100Y-17500D01*
X36700Y-09300D02*
X36700Y-07900D01*
X34700Y-09300D02*
X34700Y-07900D01*
G54D27*
X07700Y-24900D02*
X07700Y-23400D01*
X07700Y-23400D02*
X07200Y-22900D01*
X07700Y-26900D02*
X10000Y-26900D01*
X12300Y-24500D02*
X12000Y-24800D01*
X15500Y-24500D02*
X14000Y-24500D01*
X14000Y-24500D02*
X12300Y-24500D01*
G54D28*
X36900Y-21900D02*
X37900Y-20900D01*
X35900Y-21900D02*
X36900Y-21900D01*
X35900Y-21900D02*
X31500Y-21900D01*
X31500Y-21900D02*
X31100Y-21900D01*
X31100Y-21900D02*
X30300Y-22700D01*
X31500Y-21900D02*
X29700Y-21900D01*
X29700Y-21900D02*
X29300Y-21500D01*
X30300Y-22700D02*
X30300Y-23700D01*
X24500Y-26750D02*
X23750Y-26750D01*
X24750Y-26500D02*
X24500Y-26750D01*
X24750Y-26250D02*
X24750Y-26500D01*
X20500Y-26250D02*
X20500Y-27250D01*
G54D27*
X09200Y-22900D02*
X09200Y-24000D01*
X09200Y-24000D02*
X10000Y-24800D01*
X11150Y-09250D02*
X12150Y-09250D01*
X11150Y-09250D02*
X10150Y-09250D01*
X11150Y-09250D02*
X11150Y-08250D01*
X08650Y-09250D02*
X09650Y-09250D01*
X08650Y-09250D02*
X08650Y-10250D01*
X08650Y-09250D02*
X07650Y-09250D01*
X08650Y-09250D02*
X08650Y-08250D01*
X28300Y-19500D02*
X28300Y-20060D01*
X28300Y-19500D02*
X27600Y-19500D01*
X28700Y-26900D02*
X28700Y-26150D01*
X28700Y-26900D02*
X28700Y-27650D01*
X12000Y-26900D02*
X12650Y-26900D01*
X12000Y-26900D02*
X11350Y-26900D01*
X12000Y-26900D02*
X12000Y-25950D01*
X21500Y-27250D02*
X22025Y-27250D01*
X21500Y-27250D02*
X21500Y-27775D01*
X21500Y-27250D02*
X21500Y-26725D01*
X30300Y-18700D02*
X30300Y-18150D01*
X30300Y-18700D02*
X30300Y-19250D01*
X30300Y-18700D02*
X29750Y-18700D01*
X37900Y-18500D02*
X37900Y-19191D01*
X37900Y-18500D02*
X37209Y-18500D01*
X37900Y-18500D02*
X37900Y-17809D01*
X37900Y-18500D02*
X38591Y-18500D01*
X37900Y-16100D02*
X37900Y-16791D01*
X37900Y-16100D02*
X37209Y-16100D01*
X37900Y-16100D02*
X37900Y-15409D01*
X37900Y-16100D02*
X38591Y-16100D01*
X23100Y-07900D02*
X23100Y-07150D01*
X23100Y-07900D02*
X23100Y-08650D01*
X16500Y-24500D02*
X16500Y-23900D01*
X16500Y-24500D02*
X16500Y-25100D01*
X16500Y-18000D02*
X16500Y-16000D01*
X16500Y-18000D02*
X18500Y-18000D01*
X16500Y-18000D02*
X16500Y-20000D01*
X16500Y-18000D02*
X14500Y-18000D01*
X22750Y-26750D02*
X22225Y-26750D01*
X22750Y-26750D02*
X22750Y-26225D01*
X22750Y-26750D02*
X22750Y-27275D01*
X29300Y-19500D02*
X29300Y-18975D01*
X29300Y-19500D02*
X29825Y-19500D01*
X29300Y-19500D02*
X29300Y-20025D01*
X25300Y-15500D02*
X26000Y-15500D01*
X25300Y-15500D02*
X24600Y-15500D01*
X24100Y-15500D02*
X23575Y-15500D01*
X24100Y-15500D02*
X24100Y-14975D01*
X24100Y-15500D02*
X24625Y-15500D01*
X19000Y-25500D02*
X19000Y-26025D01*
X19000Y-25500D02*
X18475Y-25500D01*
X19000Y-25500D02*
X19525Y-25500D01*
X14000Y-25500D02*
X14000Y-26025D01*
X14000Y-25500D02*
X13475Y-25500D01*
X14000Y-25500D02*
X14525Y-25500D01*
X29700Y-26900D02*
X29700Y-26150D01*
X29700Y-26900D02*
X29700Y-27650D01*
X11150Y-11750D02*
X12150Y-11750D01*
X11150Y-11750D02*
X11150Y-12750D01*
X11150Y-11750D02*
X10150Y-11750D01*
X08650Y-11750D02*
X09650Y-11750D01*
X08650Y-11750D02*
X08650Y-12750D01*
X08650Y-11750D02*
X07650Y-11750D01*
X08650Y-11750D02*
X08650Y-10750D01*
G54D29*
X39600Y-25300D02*
X39600Y-25900D01*
X39600Y-14300D02*
X39600Y-24500D01*
X39600Y-12900D02*
X39600Y-13500D01*
X39500Y-25500D02*
X39500Y-26000D01*
X39500Y-14500D02*
X39500Y-24300D01*
X39500Y-12800D02*
X39500Y-13300D01*
X39400Y-25600D02*
X39400Y-26100D01*
X39400Y-14600D02*
X39400Y-24200D01*
X39400Y-12700D02*
X39400Y-13200D01*
X39300Y-25700D02*
X39300Y-26200D01*
X39300Y-14700D02*
X39300Y-24100D01*
X39300Y-12600D02*
X39300Y-13100D01*
X39200Y-25800D02*
X39200Y-26300D01*
X39200Y-14800D02*
X39200Y-24000D01*
X39200Y-12500D02*
X39200Y-13000D01*
X39100Y-25800D02*
X39100Y-26400D01*
X39100Y-14800D02*
X39100Y-24000D01*
X39100Y-12400D02*
X39100Y-13000D01*
X39000Y-25900D02*
X39000Y-26500D01*
X39000Y-14900D02*
X39000Y-23900D01*
X39000Y-12300D02*
X39000Y-12900D01*
X38900Y-25900D02*
X38900Y-26600D01*
X38900Y-14900D02*
X38900Y-23900D01*
X38900Y-12200D02*
X38900Y-12900D01*
X38800Y-25900D02*
X38800Y-26700D01*
X38800Y-14900D02*
X38800Y-23900D01*
X38800Y-12100D02*
X38800Y-12900D01*
X38700Y-25900D02*
X38700Y-26800D01*
X38700Y-14900D02*
X38700Y-23900D01*
X38700Y-12100D02*
X38700Y-12900D01*
X38600Y-25900D02*
X38600Y-27800D01*
X38600Y-14900D02*
X38600Y-23900D01*
X38600Y-07400D02*
X38600Y-12900D01*
X38500Y-25900D02*
X38500Y-27800D01*
X38500Y-21600D02*
X38500Y-23900D01*
X38500Y-19200D02*
X38500Y-20200D01*
X38500Y-16800D02*
X38500Y-17800D01*
X38500Y-14900D02*
X38500Y-15400D01*
X38500Y-07300D02*
X38500Y-12900D01*
X38400Y-25900D02*
X38400Y-27800D01*
X38400Y-21600D02*
X38400Y-23900D01*
X38400Y-19200D02*
X38400Y-20200D01*
X38400Y-16800D02*
X38400Y-17800D01*
X38400Y-14900D02*
X38400Y-15400D01*
X38400Y-07200D02*
X38400Y-12900D01*
X38300Y-25800D02*
X38300Y-27800D01*
X38300Y-21600D02*
X38300Y-24000D01*
X38300Y-19200D02*
X38300Y-20200D01*
X38300Y-16800D02*
X38300Y-17800D01*
X38300Y-14800D02*
X38300Y-15400D01*
X38300Y-07100D02*
X38300Y-13000D01*
X38200Y-27700D02*
X38200Y-27800D01*
X38200Y-25800D02*
X38200Y-26100D01*
X38200Y-21600D02*
X38200Y-24000D01*
X38200Y-19200D02*
X38200Y-20200D01*
X38200Y-16800D02*
X38200Y-17800D01*
X38200Y-14800D02*
X38200Y-15400D01*
X38200Y-08700D02*
X38200Y-13000D01*
X38200Y-07000D02*
X38200Y-07100D01*
X38100Y-27700D02*
X38100Y-27800D01*
X38100Y-25700D02*
X38100Y-26100D01*
X38100Y-21600D02*
X38100Y-24100D01*
X38100Y-19200D02*
X38100Y-20200D01*
X38100Y-16800D02*
X38100Y-17800D01*
X38100Y-14700D02*
X38100Y-15400D01*
X38100Y-08700D02*
X38100Y-13100D01*
X38100Y-07000D02*
X38100Y-07100D01*
X38000Y-27700D02*
X38000Y-27800D01*
X38000Y-25600D02*
X38000Y-26100D01*
X38000Y-21600D02*
X38000Y-24200D01*
X38000Y-19200D02*
X38000Y-20200D01*
X38000Y-16800D02*
X38000Y-17800D01*
X38000Y-14600D02*
X38000Y-15400D01*
X38000Y-08700D02*
X38000Y-13200D01*
X38000Y-07000D02*
X38000Y-07100D01*
X37900Y-27700D02*
X37900Y-27800D01*
X37900Y-25500D02*
X37900Y-26100D01*
X37900Y-21600D02*
X37900Y-24300D01*
X37900Y-19200D02*
X37900Y-20200D01*
X37900Y-16800D02*
X37900Y-17800D01*
X37900Y-14500D02*
X37900Y-15400D01*
X37900Y-08700D02*
X37900Y-13300D01*
X37900Y-07000D02*
X37900Y-07100D01*
X37800Y-27700D02*
X37800Y-27800D01*
X37800Y-25300D02*
X37800Y-26100D01*
X37800Y-21600D02*
X37800Y-24500D01*
X37800Y-19200D02*
X37800Y-20200D01*
X37800Y-16800D02*
X37800Y-17800D01*
X37800Y-14300D02*
X37800Y-15400D01*
X37800Y-08700D02*
X37800Y-13500D01*
X37800Y-07000D02*
X37800Y-07100D01*
X37700Y-27700D02*
X37700Y-27800D01*
X37700Y-21600D02*
X37700Y-26100D01*
X37700Y-19200D02*
X37700Y-20200D01*
X37700Y-16800D02*
X37700Y-17800D01*
X37700Y-08700D02*
X37700Y-15400D01*
X37700Y-07000D02*
X37700Y-07100D01*
X37600Y-27700D02*
X37600Y-27800D01*
X37600Y-21700D02*
X37600Y-26100D01*
X37600Y-19200D02*
X37600Y-20200D01*
X37600Y-16800D02*
X37600Y-17800D01*
X37600Y-08700D02*
X37600Y-15400D01*
X37600Y-07000D02*
X37600Y-07100D01*
X37500Y-27700D02*
X37500Y-27800D01*
X37500Y-21800D02*
X37500Y-26100D01*
X37500Y-19200D02*
X37500Y-20200D01*
X37500Y-16800D02*
X37500Y-17800D01*
X37500Y-08700D02*
X37500Y-15400D01*
X37500Y-07000D02*
X37500Y-07100D01*
X37400Y-27700D02*
X37400Y-27800D01*
X37400Y-21900D02*
X37400Y-26100D01*
X37400Y-19200D02*
X37400Y-20200D01*
X37400Y-16800D02*
X37400Y-17800D01*
X37400Y-08700D02*
X37400Y-15400D01*
X37400Y-07000D02*
X37400Y-07100D01*
X37300Y-27700D02*
X37300Y-27800D01*
X37300Y-22000D02*
X37300Y-26100D01*
X37300Y-19200D02*
X37300Y-20200D01*
X37300Y-16800D02*
X37300Y-17800D01*
X37300Y-08700D02*
X37300Y-15400D01*
X37300Y-07000D02*
X37300Y-07100D01*
X37200Y-27700D02*
X37200Y-27800D01*
X37200Y-22100D02*
X37200Y-26100D01*
X37200Y-08700D02*
X37200Y-21100D01*
X37200Y-07000D02*
X37200Y-07100D01*
X37100Y-27700D02*
X37100Y-27800D01*
X37100Y-22200D02*
X37100Y-26100D01*
X37100Y-09600D02*
X37100Y-21200D01*
X37100Y-08700D02*
X37100Y-09000D01*
X37100Y-07000D02*
X37100Y-07100D01*
X37000Y-27700D02*
X37000Y-27800D01*
X37000Y-22200D02*
X37000Y-26100D01*
X37000Y-09700D02*
X37000Y-21300D01*
X37000Y-08700D02*
X37000Y-08900D01*
X37000Y-07000D02*
X37000Y-07100D01*
X36900Y-27700D02*
X36900Y-27800D01*
X36900Y-22200D02*
X36900Y-26100D01*
X36900Y-09800D02*
X36900Y-21400D01*
X36900Y-07000D02*
X36900Y-07100D01*
X36800Y-27700D02*
X36800Y-27800D01*
X36800Y-22200D02*
X36800Y-26100D01*
X36800Y-09800D02*
X36800Y-21500D01*
X36800Y-07000D02*
X36800Y-07100D01*
X36700Y-27700D02*
X36700Y-27800D01*
X36700Y-22200D02*
X36700Y-26100D01*
X36700Y-09800D02*
X36700Y-21600D01*
X36700Y-07000D02*
X36700Y-07100D01*
X36600Y-27700D02*
X36600Y-27800D01*
X36600Y-22200D02*
X36600Y-26100D01*
X36600Y-09800D02*
X36600Y-21600D01*
X36600Y-07000D02*
X36600Y-07100D01*
X36500Y-27700D02*
X36500Y-27800D01*
X36500Y-22200D02*
X36500Y-26100D01*
X36500Y-19800D02*
X36500Y-21600D01*
X36500Y-17400D02*
X36500Y-19200D01*
X36500Y-09800D02*
X36500Y-16800D01*
X36500Y-07000D02*
X36500Y-07100D01*
X36400Y-27700D02*
X36400Y-27800D01*
X36400Y-22400D02*
X36400Y-26100D01*
X36400Y-20000D02*
X36400Y-21400D01*
X36400Y-17600D02*
X36400Y-19000D01*
X36400Y-09700D02*
X36400Y-16600D01*
X36400Y-08700D02*
X36400Y-08900D01*
X36400Y-07000D02*
X36400Y-07100D01*
X36300Y-27700D02*
X36300Y-27800D01*
X36300Y-22500D02*
X36300Y-26100D01*
X36300Y-20100D02*
X36300Y-21300D01*
X36300Y-17700D02*
X36300Y-18900D01*
X36300Y-09600D02*
X36300Y-16500D01*
X36300Y-08700D02*
X36300Y-09000D01*
X36300Y-07000D02*
X36300Y-07100D01*
X36200Y-27700D02*
X36200Y-27800D01*
X36200Y-22500D02*
X36200Y-26100D01*
X36200Y-20100D02*
X36200Y-21300D01*
X36200Y-17700D02*
X36200Y-18900D01*
X36200Y-08700D02*
X36200Y-16500D01*
X36200Y-07000D02*
X36200Y-07100D01*
X36100Y-27700D02*
X36100Y-27800D01*
X36100Y-22600D02*
X36100Y-26100D01*
X36100Y-20200D02*
X36100Y-21200D01*
X36100Y-17800D02*
X36100Y-18800D01*
X36100Y-09600D02*
X36100Y-16400D01*
X36100Y-08700D02*
X36100Y-09000D01*
X36100Y-07000D02*
X36100Y-07100D01*
X36000Y-27700D02*
X36000Y-27800D01*
X36000Y-22600D02*
X36000Y-26100D01*
X36000Y-20200D02*
X36000Y-21200D01*
X36000Y-17800D02*
X36000Y-18800D01*
X36000Y-09700D02*
X36000Y-16400D01*
X36000Y-08700D02*
X36000Y-08900D01*
X36000Y-07000D02*
X36000Y-07100D01*
X35900Y-27700D02*
X35900Y-27800D01*
X35900Y-22600D02*
X35900Y-26100D01*
X35900Y-20200D02*
X35900Y-21200D01*
X35900Y-17800D02*
X35900Y-18800D01*
X35900Y-09800D02*
X35900Y-16400D01*
X35900Y-08700D02*
X35900Y-08800D01*
X35900Y-07000D02*
X35900Y-07100D01*
X35800Y-27700D02*
X35800Y-27800D01*
X35800Y-22600D02*
X35800Y-26100D01*
X35800Y-20200D02*
X35800Y-21200D01*
X35800Y-17800D02*
X35800Y-18800D01*
X35800Y-09800D02*
X35800Y-16400D01*
X35800Y-08700D02*
X35800Y-08800D01*
X35800Y-07000D02*
X35800Y-07100D01*
X35700Y-27700D02*
X35700Y-27800D01*
X35700Y-22600D02*
X35700Y-26100D01*
X35700Y-20200D02*
X35700Y-21200D01*
X35700Y-17800D02*
X35700Y-18800D01*
X35700Y-09800D02*
X35700Y-16400D01*
X35700Y-08700D02*
X35700Y-08800D01*
X35700Y-07000D02*
X35700Y-07100D01*
X35600Y-27700D02*
X35600Y-27800D01*
X35600Y-22500D02*
X35600Y-26100D01*
X35600Y-20100D02*
X35600Y-21300D01*
X35600Y-17700D02*
X35600Y-18900D01*
X35600Y-09800D02*
X35600Y-16500D01*
X35600Y-08700D02*
X35600Y-08800D01*
X35600Y-07000D02*
X35600Y-07100D01*
X35500Y-27700D02*
X35500Y-27800D01*
X35500Y-22500D02*
X35500Y-26100D01*
X35500Y-20100D02*
X35500Y-21300D01*
X35500Y-17700D02*
X35500Y-18900D01*
X35500Y-09800D02*
X35500Y-16500D01*
X35500Y-08700D02*
X35500Y-08800D01*
X35500Y-07000D02*
X35500Y-07100D01*
X35400Y-27700D02*
X35400Y-27800D01*
X35400Y-22400D02*
X35400Y-26100D01*
X35400Y-20000D02*
X35400Y-21400D01*
X35400Y-17600D02*
X35400Y-19000D01*
X35400Y-09700D02*
X35400Y-16600D01*
X35400Y-08700D02*
X35400Y-08900D01*
X35400Y-07000D02*
X35400Y-07100D01*
X35300Y-27700D02*
X35300Y-27800D01*
X35300Y-22200D02*
X35300Y-26100D01*
X35300Y-19800D02*
X35300Y-21600D01*
X35300Y-17400D02*
X35300Y-19200D01*
X35300Y-09600D02*
X35300Y-16800D01*
X35300Y-08700D02*
X35300Y-09000D01*
X35300Y-07000D02*
X35300Y-07100D01*
X35200Y-27700D02*
X35200Y-27800D01*
X35200Y-22200D02*
X35200Y-26100D01*
X35200Y-19800D02*
X35200Y-21600D01*
X35200Y-17400D02*
X35200Y-19200D01*
X35200Y-08700D02*
X35200Y-16800D01*
X35200Y-07000D02*
X35200Y-07100D01*
X35100Y-27700D02*
X35100Y-27800D01*
X35100Y-22200D02*
X35100Y-26100D01*
X35100Y-19800D02*
X35100Y-21600D01*
X35100Y-17400D02*
X35100Y-19200D01*
X35100Y-09800D02*
X35100Y-16800D01*
X35100Y-08700D02*
X35100Y-08800D01*
X35100Y-07000D02*
X35100Y-07100D01*
X35000Y-27700D02*
X35000Y-27800D01*
X35000Y-22200D02*
X35000Y-26100D01*
X35000Y-19800D02*
X35000Y-21600D01*
X35000Y-17400D02*
X35000Y-19200D01*
X35000Y-09800D02*
X35000Y-16800D01*
X35000Y-08700D02*
X35000Y-08800D01*
X35000Y-07000D02*
X35000Y-07100D01*
X34900Y-27700D02*
X34900Y-27800D01*
X34900Y-22200D02*
X34900Y-26100D01*
X34900Y-19800D02*
X34900Y-21600D01*
X34900Y-17400D02*
X34900Y-19200D01*
X34900Y-09800D02*
X34900Y-16800D01*
X34900Y-07000D02*
X34900Y-07100D01*
X34800Y-27700D02*
X34800Y-27800D01*
X34800Y-22200D02*
X34800Y-26100D01*
X34800Y-19800D02*
X34800Y-21600D01*
X34800Y-17400D02*
X34800Y-19200D01*
X34800Y-09800D02*
X34800Y-16800D01*
X34800Y-07000D02*
X34800Y-07100D01*
X34700Y-27700D02*
X34700Y-27800D01*
X34700Y-22200D02*
X34700Y-26100D01*
X34700Y-19800D02*
X34700Y-21600D01*
X34700Y-17400D02*
X34700Y-19200D01*
X34700Y-09800D02*
X34700Y-16800D01*
X34700Y-07000D02*
X34700Y-07100D01*
X34600Y-27700D02*
X34600Y-27800D01*
X34600Y-22200D02*
X34600Y-26100D01*
X34600Y-19800D02*
X34600Y-21600D01*
X34600Y-17400D02*
X34600Y-19200D01*
X34600Y-09800D02*
X34600Y-16800D01*
X34600Y-07000D02*
X34600Y-07100D01*
X34500Y-27700D02*
X34500Y-27800D01*
X34500Y-22200D02*
X34500Y-26100D01*
X34500Y-19800D02*
X34500Y-21600D01*
X34500Y-17400D02*
X34500Y-19200D01*
X34500Y-09800D02*
X34500Y-16800D01*
X34500Y-07000D02*
X34500Y-07100D01*
X34400Y-27700D02*
X34400Y-27800D01*
X34400Y-22200D02*
X34400Y-26100D01*
X34400Y-19800D02*
X34400Y-21600D01*
X34400Y-17400D02*
X34400Y-19200D01*
X34400Y-09800D02*
X34400Y-16800D01*
X34400Y-08700D02*
X34400Y-08800D01*
X34400Y-07000D02*
X34400Y-07100D01*
X34300Y-27700D02*
X34300Y-27800D01*
X34300Y-22200D02*
X34300Y-26100D01*
X34300Y-19800D02*
X34300Y-21600D01*
X34300Y-17400D02*
X34300Y-19200D01*
X34300Y-09800D02*
X34300Y-16800D01*
X34300Y-08700D02*
X34300Y-08800D01*
X34300Y-07000D02*
X34300Y-07100D01*
X34200Y-27700D02*
X34200Y-27800D01*
X34200Y-22200D02*
X34200Y-26100D01*
X34200Y-19800D02*
X34200Y-21600D01*
X34200Y-17400D02*
X34200Y-19200D01*
X34200Y-08700D02*
X34200Y-16800D01*
X34200Y-07000D02*
X34200Y-07100D01*
X34100Y-27700D02*
X34100Y-27800D01*
X34100Y-22200D02*
X34100Y-26100D01*
X34100Y-19800D02*
X34100Y-21600D01*
X34100Y-17400D02*
X34100Y-19200D01*
X34100Y-08700D02*
X34100Y-16800D01*
X34100Y-07000D02*
X34100Y-07100D01*
X34000Y-27700D02*
X34000Y-27800D01*
X34000Y-22200D02*
X34000Y-26100D01*
X34000Y-19800D02*
X34000Y-21600D01*
X34000Y-17400D02*
X34000Y-19100D01*
X34000Y-08700D02*
X34000Y-16700D01*
X34000Y-07000D02*
X34000Y-07100D01*
X33900Y-27700D02*
X33900Y-27800D01*
X33900Y-22200D02*
X33900Y-26100D01*
X33900Y-19800D02*
X33900Y-21600D01*
X33900Y-17400D02*
X33900Y-19000D01*
X33900Y-08700D02*
X33900Y-16600D01*
X33900Y-07000D02*
X33900Y-07100D01*
X33800Y-27700D02*
X33800Y-27800D01*
X33800Y-22200D02*
X33800Y-26100D01*
X33800Y-19800D02*
X33800Y-21600D01*
X33800Y-17400D02*
X33800Y-18900D01*
X33800Y-08700D02*
X33800Y-16500D01*
X33800Y-07000D02*
X33800Y-07100D01*
X33700Y-27700D02*
X33700Y-27800D01*
X33700Y-22200D02*
X33700Y-26100D01*
X33700Y-19800D02*
X33700Y-21600D01*
X33700Y-17400D02*
X33700Y-18800D01*
X33700Y-08700D02*
X33700Y-16400D01*
X33700Y-07000D02*
X33700Y-07100D01*
X33600Y-27700D02*
X33600Y-27800D01*
X33600Y-22200D02*
X33600Y-26100D01*
X33600Y-19700D02*
X33600Y-21600D01*
X33600Y-17300D02*
X33600Y-18700D01*
X33600Y-08700D02*
X33600Y-16300D01*
X33600Y-07000D02*
X33600Y-07100D01*
X33500Y-27700D02*
X33500Y-27800D01*
X33500Y-22200D02*
X33500Y-26100D01*
X33500Y-21200D02*
X33500Y-21600D01*
X33500Y-19600D02*
X33500Y-20600D01*
X33500Y-17200D02*
X33500Y-18200D01*
X33500Y-08700D02*
X33500Y-15800D01*
X33500Y-07000D02*
X33500Y-07100D01*
X33400Y-27700D02*
X33400Y-27800D01*
X33400Y-22200D02*
X33400Y-26100D01*
X33400Y-21400D02*
X33400Y-21600D01*
X33400Y-19500D02*
X33400Y-20400D01*
X33400Y-17100D02*
X33400Y-18000D01*
X33400Y-08700D02*
X33400Y-15600D01*
X33400Y-07000D02*
X33400Y-07100D01*
X33300Y-27700D02*
X33300Y-27800D01*
X33300Y-22200D02*
X33300Y-26100D01*
X33300Y-21500D02*
X33300Y-21600D01*
X33300Y-19400D02*
X33300Y-20300D01*
X33300Y-17000D02*
X33300Y-17900D01*
X33300Y-08700D02*
X33300Y-15500D01*
X33300Y-07000D02*
X33300Y-07100D01*
X33200Y-27700D02*
X33200Y-27800D01*
X33200Y-22200D02*
X33200Y-26100D01*
X33200Y-21500D02*
X33200Y-21600D01*
X33200Y-19300D02*
X33200Y-20300D01*
X33200Y-16900D02*
X33200Y-17900D01*
X33200Y-08700D02*
X33200Y-15500D01*
X33200Y-07000D02*
X33200Y-07100D01*
X33100Y-27700D02*
X33100Y-27800D01*
X33100Y-22200D02*
X33100Y-26100D01*
X33100Y-19200D02*
X33100Y-20200D01*
X33100Y-16800D02*
X33100Y-17800D01*
X33100Y-08700D02*
X33100Y-15400D01*
X33100Y-07000D02*
X33100Y-07100D01*
X33000Y-27700D02*
X33000Y-27800D01*
X33000Y-22200D02*
X33000Y-26100D01*
X33000Y-19200D02*
X33000Y-20200D01*
X33000Y-16800D02*
X33000Y-17800D01*
X33000Y-08700D02*
X33000Y-15400D01*
X33000Y-07000D02*
X33000Y-07100D01*
X32900Y-27700D02*
X32900Y-27800D01*
X32900Y-22200D02*
X32900Y-26100D01*
X32900Y-19200D02*
X32900Y-20200D01*
X32900Y-16800D02*
X32900Y-17800D01*
X32900Y-08700D02*
X32900Y-15400D01*
X32900Y-07000D02*
X32900Y-07100D01*
X32800Y-27700D02*
X32800Y-27800D01*
X32800Y-22200D02*
X32800Y-26100D01*
X32800Y-19200D02*
X32800Y-20200D01*
X32800Y-16800D02*
X32800Y-17800D01*
X32800Y-08700D02*
X32800Y-15400D01*
X32800Y-07000D02*
X32800Y-07100D01*
X32700Y-27700D02*
X32700Y-27800D01*
X32700Y-22200D02*
X32700Y-26100D01*
X32700Y-19200D02*
X32700Y-20200D01*
X32700Y-16800D02*
X32700Y-17800D01*
X32700Y-08700D02*
X32700Y-15400D01*
X32700Y-07000D02*
X32700Y-07100D01*
X32600Y-27700D02*
X32600Y-27800D01*
X32600Y-22200D02*
X32600Y-26100D01*
X32600Y-21500D02*
X32600Y-21600D01*
X32600Y-19100D02*
X32600Y-20300D01*
X32600Y-16700D02*
X32600Y-17900D01*
X32600Y-08700D02*
X32600Y-15500D01*
X32600Y-07000D02*
X32600Y-07100D01*
X32500Y-27700D02*
X32500Y-27800D01*
X32500Y-22200D02*
X32500Y-26100D01*
X32500Y-21500D02*
X32500Y-21600D01*
X32500Y-19100D02*
X32500Y-20300D01*
X32500Y-16700D02*
X32500Y-17900D01*
X32500Y-08700D02*
X32500Y-15500D01*
X32500Y-07000D02*
X32500Y-07100D01*
X32400Y-27700D02*
X32400Y-27800D01*
X32400Y-22200D02*
X32400Y-26100D01*
X32400Y-21400D02*
X32400Y-21600D01*
X32400Y-19000D02*
X32400Y-20400D01*
X32400Y-16600D02*
X32400Y-18000D01*
X32400Y-08700D02*
X32400Y-15600D01*
X32400Y-07000D02*
X32400Y-07100D01*
X32300Y-27700D02*
X32300Y-27800D01*
X32300Y-22200D02*
X32300Y-26100D01*
X32300Y-21200D02*
X32300Y-21600D01*
X32300Y-18800D02*
X32300Y-20600D01*
X32300Y-16400D02*
X32300Y-18200D01*
X32300Y-08700D02*
X32300Y-15800D01*
X32300Y-07000D02*
X32300Y-07100D01*
X32200Y-27700D02*
X32200Y-27800D01*
X32200Y-22200D02*
X32200Y-26100D01*
X32200Y-21200D02*
X32200Y-21600D01*
X32200Y-18800D02*
X32200Y-20600D01*
X32200Y-16400D02*
X32200Y-18200D01*
X32200Y-08700D02*
X32200Y-15800D01*
X32200Y-07000D02*
X32200Y-07100D01*
X32100Y-22200D02*
X32100Y-27800D01*
X32100Y-21200D02*
X32100Y-21600D01*
X32100Y-18800D02*
X32100Y-20600D01*
X32100Y-16400D02*
X32100Y-18100D01*
X32100Y-08700D02*
X32100Y-15700D01*
X32100Y-07000D02*
X32100Y-07100D01*
X32000Y-22200D02*
X32000Y-27800D01*
X32000Y-21200D02*
X32000Y-21600D01*
X32000Y-18800D02*
X32000Y-20600D01*
X32000Y-16400D02*
X32000Y-18000D01*
X32000Y-08700D02*
X32000Y-15600D01*
X32000Y-07000D02*
X32000Y-07100D01*
X31900Y-22200D02*
X31900Y-27800D01*
X31900Y-21200D02*
X31900Y-21600D01*
X31900Y-18800D02*
X31900Y-20500D01*
X31900Y-08700D02*
X31900Y-15500D01*
X31900Y-07000D02*
X31900Y-07100D01*
X31800Y-22200D02*
X31800Y-27800D01*
X31800Y-21200D02*
X31800Y-21600D01*
X31800Y-18800D02*
X31800Y-20400D01*
X31800Y-08700D02*
X31800Y-12800D01*
X31800Y-07000D02*
X31800Y-07100D01*
X31700Y-22200D02*
X31700Y-27800D01*
X31700Y-21200D02*
X31700Y-21600D01*
X31700Y-18700D02*
X31700Y-20300D01*
X31700Y-08700D02*
X31700Y-12700D01*
X31700Y-07000D02*
X31700Y-07100D01*
X31600Y-22200D02*
X31600Y-27800D01*
X31600Y-21200D02*
X31600Y-21600D01*
X31600Y-18600D02*
X31600Y-20200D01*
X31600Y-08700D02*
X31600Y-12600D01*
X31600Y-07000D02*
X31600Y-07100D01*
X31500Y-22200D02*
X31500Y-27800D01*
X31500Y-21100D02*
X31500Y-21600D01*
X31500Y-18500D02*
X31500Y-20100D01*
X31500Y-08700D02*
X31500Y-12500D01*
X31500Y-07000D02*
X31500Y-07100D01*
X31400Y-22200D02*
X31400Y-27800D01*
X31400Y-21000D02*
X31400Y-21600D01*
X31400Y-08700D02*
X31400Y-12400D01*
X31400Y-07000D02*
X31400Y-07100D01*
X31300Y-22200D02*
X31300Y-27800D01*
X31300Y-20900D02*
X31300Y-21600D01*
X31300Y-08700D02*
X31300Y-12300D01*
X31300Y-07000D02*
X31300Y-07100D01*
X31200Y-27700D02*
X31200Y-27800D01*
X31200Y-22300D02*
X31200Y-26100D01*
X31200Y-20800D02*
X31200Y-21600D01*
X31200Y-08700D02*
X31200Y-12200D01*
X31200Y-07000D02*
X31200Y-07100D01*
X31100Y-27700D02*
X31100Y-27800D01*
X31100Y-22400D02*
X31100Y-26100D01*
X31100Y-20700D02*
X31100Y-21600D01*
X31100Y-08700D02*
X31100Y-12200D01*
X31100Y-07000D02*
X31100Y-07100D01*
X31000Y-27700D02*
X31000Y-27800D01*
X31000Y-22500D02*
X31000Y-26100D01*
X31000Y-20600D02*
X31000Y-21600D01*
X31000Y-08700D02*
X31000Y-12200D01*
X31000Y-07000D02*
X31000Y-07100D01*
X30900Y-27700D02*
X30900Y-27800D01*
X30900Y-22600D02*
X30900Y-26100D01*
X30900Y-18200D02*
X30900Y-21600D01*
X30900Y-08700D02*
X30900Y-12200D01*
X30900Y-07000D02*
X30900Y-07100D01*
X30800Y-27700D02*
X30800Y-27800D01*
X30800Y-22700D02*
X30800Y-26100D01*
X30800Y-18100D02*
X30800Y-21600D01*
X30800Y-08700D02*
X30800Y-12200D01*
X30800Y-07000D02*
X30800Y-07100D01*
X30700Y-27700D02*
X30700Y-27800D01*
X30700Y-24000D02*
X30700Y-26100D01*
X30700Y-23000D02*
X30700Y-23400D01*
X30700Y-19000D02*
X30700Y-21600D01*
X30700Y-18000D02*
X30700Y-18400D01*
X30700Y-08700D02*
X30700Y-12200D01*
X30700Y-07000D02*
X30700Y-07100D01*
X30600Y-27700D02*
X30600Y-27800D01*
X30600Y-24100D02*
X30600Y-26100D01*
X30600Y-23100D02*
X30600Y-23300D01*
X30600Y-19100D02*
X30600Y-21600D01*
X30600Y-17900D02*
X30600Y-18300D01*
X30600Y-08700D02*
X30600Y-12200D01*
X30600Y-07000D02*
X30600Y-07100D01*
X30500Y-27700D02*
X30500Y-27800D01*
X30500Y-24200D02*
X30500Y-26100D01*
X30500Y-19200D02*
X30500Y-21600D01*
X30500Y-17800D02*
X30500Y-18200D01*
X30500Y-08700D02*
X30500Y-12200D01*
X30500Y-07000D02*
X30500Y-07100D01*
X30400Y-27700D02*
X30400Y-27800D01*
X30400Y-24200D02*
X30400Y-26100D01*
X30400Y-19200D02*
X30400Y-21600D01*
X30400Y-17800D02*
X30400Y-18200D01*
X30400Y-08700D02*
X30400Y-12200D01*
X30400Y-07000D02*
X30400Y-07100D01*
X30300Y-27700D02*
X30300Y-27800D01*
X30300Y-24200D02*
X30300Y-26100D01*
X30300Y-19200D02*
X30300Y-21600D01*
X30300Y-17800D02*
X30300Y-18200D01*
X30300Y-08700D02*
X30300Y-12200D01*
X30300Y-07000D02*
X30300Y-07100D01*
X30200Y-27700D02*
X30200Y-27800D01*
X30200Y-24200D02*
X30200Y-26100D01*
X30200Y-19200D02*
X30200Y-21600D01*
X30200Y-17800D02*
X30200Y-18200D01*
X30200Y-08700D02*
X30200Y-12200D01*
X30200Y-07000D02*
X30200Y-07100D01*
X30100Y-27700D02*
X30100Y-27800D01*
X30100Y-24200D02*
X30100Y-26100D01*
X30100Y-19200D02*
X30100Y-21600D01*
X30100Y-17800D02*
X30100Y-18200D01*
X30100Y-07000D02*
X30100Y-12200D01*
X30000Y-27700D02*
X30000Y-27800D01*
X30000Y-24100D02*
X30000Y-26100D01*
X30000Y-23100D02*
X30000Y-23300D01*
X30000Y-22200D02*
X30000Y-22300D01*
X30000Y-19100D02*
X30000Y-21600D01*
X30000Y-17800D02*
X30000Y-18300D01*
X30000Y-07000D02*
X30000Y-12200D01*
X29900Y-27700D02*
X29900Y-27800D01*
X29900Y-24000D02*
X29900Y-26100D01*
X29900Y-23000D02*
X29900Y-23400D01*
X29900Y-22200D02*
X29900Y-22400D01*
X29900Y-19000D02*
X29900Y-21600D01*
X29900Y-17800D02*
X29900Y-18400D01*
X29900Y-07000D02*
X29900Y-12200D01*
X29800Y-27700D02*
X29800Y-27800D01*
X29800Y-22200D02*
X29800Y-26100D01*
X29800Y-17800D02*
X29800Y-21500D01*
X29800Y-07000D02*
X29800Y-12200D01*
X29700Y-27700D02*
X29700Y-27800D01*
X29700Y-22200D02*
X29700Y-26100D01*
X29700Y-19800D02*
X29700Y-21200D01*
X29700Y-17800D02*
X29700Y-19200D01*
X29700Y-07000D02*
X29700Y-12200D01*
X29600Y-27700D02*
X29600Y-27800D01*
X29600Y-22200D02*
X29600Y-26100D01*
X29600Y-19900D02*
X29600Y-21100D01*
X29600Y-17800D02*
X29600Y-19100D01*
X29600Y-08700D02*
X29600Y-12200D01*
X29600Y-07000D02*
X29600Y-07100D01*
X29500Y-27700D02*
X29500Y-27800D01*
X29500Y-22200D02*
X29500Y-26100D01*
X29500Y-20000D02*
X29500Y-21000D01*
X29500Y-17800D02*
X29500Y-19000D01*
X29500Y-08700D02*
X29500Y-12200D01*
X29500Y-07000D02*
X29500Y-07100D01*
X29400Y-27700D02*
X29400Y-27800D01*
X29400Y-22100D02*
X29400Y-26100D01*
X29400Y-20000D02*
X29400Y-21000D01*
X29400Y-17800D02*
X29400Y-19000D01*
X29400Y-08700D02*
X29400Y-12200D01*
X29400Y-07000D02*
X29400Y-07100D01*
X29300Y-27700D02*
X29300Y-27800D01*
X29300Y-22000D02*
X29300Y-26100D01*
X29300Y-20000D02*
X29300Y-21000D01*
X29300Y-17800D02*
X29300Y-19000D01*
X29300Y-08700D02*
X29300Y-12200D01*
X29300Y-07000D02*
X29300Y-07100D01*
X29200Y-27700D02*
X29200Y-27800D01*
X29200Y-22000D02*
X29200Y-26100D01*
X29200Y-20000D02*
X29200Y-21000D01*
X29200Y-17800D02*
X29200Y-19000D01*
X29200Y-08700D02*
X29200Y-12200D01*
X29200Y-07000D02*
X29200Y-07100D01*
X29100Y-27700D02*
X29100Y-27800D01*
X29100Y-22000D02*
X29100Y-26100D01*
X29100Y-20000D02*
X29100Y-21000D01*
X29100Y-17800D02*
X29100Y-19000D01*
X29100Y-08700D02*
X29100Y-12200D01*
X29100Y-07000D02*
X29100Y-07100D01*
X29000Y-27700D02*
X29000Y-27800D01*
X29000Y-21900D02*
X29000Y-26100D01*
X29000Y-19900D02*
X29000Y-21100D01*
X29000Y-17800D02*
X29000Y-19100D01*
X29000Y-08700D02*
X29000Y-12200D01*
X29000Y-07000D02*
X29000Y-07100D01*
X28900Y-27700D02*
X28900Y-27800D01*
X28900Y-21800D02*
X28900Y-26100D01*
X28900Y-20100D02*
X28900Y-21200D01*
X28900Y-08700D02*
X28900Y-11900D01*
X28900Y-07000D02*
X28900Y-07100D01*
X28800Y-27700D02*
X28800Y-27800D01*
X28800Y-20100D02*
X28800Y-26100D01*
X28800Y-08700D02*
X28800Y-11900D01*
X28800Y-07000D02*
X28800Y-07100D01*
X28700Y-27700D02*
X28700Y-27800D01*
X28700Y-20100D02*
X28700Y-26100D01*
X28700Y-08700D02*
X28700Y-11900D01*
X28700Y-07000D02*
X28700Y-07100D01*
X28600Y-27700D02*
X28600Y-27800D01*
X28600Y-20100D02*
X28600Y-26100D01*
X28600Y-08700D02*
X28600Y-11900D01*
X28600Y-07000D02*
X28600Y-07100D01*
X28500Y-27700D02*
X28500Y-27800D01*
X28500Y-20100D02*
X28500Y-26100D01*
X28500Y-08700D02*
X28500Y-11900D01*
X28500Y-07000D02*
X28500Y-07100D01*
X28400Y-27700D02*
X28400Y-27800D01*
X28400Y-20100D02*
X28400Y-26100D01*
X28400Y-08700D02*
X28400Y-11900D01*
X28400Y-07000D02*
X28400Y-07100D01*
X28300Y-27700D02*
X28300Y-27800D01*
X28300Y-20100D02*
X28300Y-26100D01*
X28300Y-08700D02*
X28300Y-11900D01*
X28300Y-07000D02*
X28300Y-07100D01*
X28200Y-27700D02*
X28200Y-27800D01*
X28200Y-20100D02*
X28200Y-26100D01*
X28200Y-08700D02*
X28200Y-11900D01*
X28200Y-07000D02*
X28200Y-07100D01*
X28100Y-27700D02*
X28100Y-27800D01*
X28100Y-20100D02*
X28100Y-26100D01*
X28100Y-08700D02*
X28100Y-11900D01*
X28100Y-07000D02*
X28100Y-07100D01*
X28000Y-27700D02*
X28000Y-27800D01*
X28000Y-20100D02*
X28000Y-26100D01*
X28000Y-08700D02*
X28000Y-11900D01*
X28000Y-07000D02*
X28000Y-07100D01*
X27900Y-27700D02*
X27900Y-27800D01*
X27900Y-20100D02*
X27900Y-26100D01*
X27900Y-08700D02*
X27900Y-11900D01*
X27900Y-07000D02*
X27900Y-07100D01*
X27800Y-27700D02*
X27800Y-27800D01*
X27800Y-20100D02*
X27800Y-26100D01*
X27800Y-08700D02*
X27800Y-11900D01*
X27800Y-07000D02*
X27800Y-07100D01*
X27700Y-27700D02*
X27700Y-27800D01*
X27700Y-20100D02*
X27700Y-26100D01*
X27700Y-08700D02*
X27700Y-11900D01*
X27700Y-07000D02*
X27700Y-07100D01*
X27600Y-27700D02*
X27600Y-27800D01*
X27600Y-18900D02*
X27600Y-26100D01*
X27600Y-08700D02*
X27600Y-17900D01*
X27600Y-07000D02*
X27600Y-07100D01*
X27500Y-27700D02*
X27500Y-27800D01*
X27500Y-18900D02*
X27500Y-26100D01*
X27500Y-08700D02*
X27500Y-17800D01*
X27500Y-07000D02*
X27500Y-07100D01*
X27400Y-27700D02*
X27400Y-27800D01*
X27400Y-18900D02*
X27400Y-26100D01*
X27400Y-08700D02*
X27400Y-17700D01*
X27400Y-07000D02*
X27400Y-07100D01*
X27300Y-27700D02*
X27300Y-27800D01*
X27300Y-18800D02*
X27300Y-26100D01*
X27300Y-08700D02*
X27300Y-17600D01*
X27300Y-07000D02*
X27300Y-07100D01*
X27200Y-27700D02*
X27200Y-27800D01*
X27200Y-18700D02*
X27200Y-26100D01*
X27200Y-08700D02*
X27200Y-11300D01*
X27200Y-07000D02*
X27200Y-07100D01*
X27100Y-27700D02*
X27100Y-27800D01*
X27100Y-18600D02*
X27100Y-26100D01*
X27100Y-08700D02*
X27100Y-11200D01*
X27100Y-07000D02*
X27100Y-07100D01*
X27000Y-27700D02*
X27000Y-27800D01*
X27000Y-18500D02*
X27000Y-26100D01*
X27000Y-08700D02*
X27000Y-11100D01*
X27000Y-07000D02*
X27000Y-07100D01*
X26900Y-27700D02*
X26900Y-27800D01*
X26900Y-18400D02*
X26900Y-26100D01*
X26900Y-08700D02*
X26900Y-11000D01*
X26900Y-07000D02*
X26900Y-07100D01*
X26800Y-27700D02*
X26800Y-27800D01*
X26800Y-18300D02*
X26800Y-26100D01*
X26800Y-08700D02*
X26800Y-10900D01*
X26800Y-07000D02*
X26800Y-07100D01*
X26700Y-27700D02*
X26700Y-27800D01*
X26700Y-24000D02*
X26700Y-26100D01*
X26700Y-18200D02*
X26700Y-23400D01*
X26700Y-08700D02*
X26700Y-10800D01*
X26700Y-07000D02*
X26700Y-07100D01*
X26600Y-27700D02*
X26600Y-27800D01*
X26600Y-24400D02*
X26600Y-26100D01*
X26600Y-18100D02*
X26600Y-23300D01*
X26600Y-08700D02*
X26600Y-10700D01*
X26600Y-07000D02*
X26600Y-07100D01*
X26500Y-27700D02*
X26500Y-27800D01*
X26500Y-24500D02*
X26500Y-26100D01*
X26500Y-11800D02*
X26500Y-23200D01*
X26500Y-08700D02*
X26500Y-10600D01*
X26500Y-07000D02*
X26500Y-07100D01*
X26400Y-27700D02*
X26400Y-27800D01*
X26400Y-24600D02*
X26400Y-26100D01*
X26400Y-11700D02*
X26400Y-23200D01*
X26400Y-08700D02*
X26400Y-10500D01*
X26400Y-07000D02*
X26400Y-07100D01*
X26300Y-27700D02*
X26300Y-27800D01*
X26300Y-24700D02*
X26300Y-26100D01*
X26300Y-11600D02*
X26300Y-23200D01*
X26300Y-08700D02*
X26300Y-10400D01*
X26300Y-07000D02*
X26300Y-07100D01*
X26200Y-27700D02*
X26200Y-27800D01*
X26200Y-24800D02*
X26200Y-26100D01*
X26200Y-11500D02*
X26200Y-23200D01*
X26200Y-08700D02*
X26200Y-10300D01*
X26200Y-07000D02*
X26200Y-07100D01*
X26100Y-27700D02*
X26100Y-27800D01*
X26100Y-24900D02*
X26100Y-26100D01*
X26100Y-11400D02*
X26100Y-23200D01*
X26100Y-08700D02*
X26100Y-10200D01*
X26100Y-07000D02*
X26100Y-07100D01*
X26000Y-27700D02*
X26000Y-27800D01*
X26000Y-24900D02*
X26000Y-26100D01*
X26000Y-11300D02*
X26000Y-23300D01*
X26000Y-08700D02*
X26000Y-10100D01*
X26000Y-07000D02*
X26000Y-07100D01*
X25900Y-27700D02*
X25900Y-27800D01*
X25900Y-24900D02*
X25900Y-26100D01*
X25900Y-20100D02*
X25900Y-23400D01*
X25900Y-11200D02*
X25900Y-11900D01*
X25900Y-08700D02*
X25900Y-10100D01*
X25900Y-07000D02*
X25900Y-07100D01*
X25800Y-27700D02*
X25800Y-27800D01*
X25800Y-24900D02*
X25800Y-26100D01*
X25800Y-20100D02*
X25800Y-24000D01*
X25800Y-11100D02*
X25800Y-11900D01*
X25800Y-08700D02*
X25800Y-10100D01*
X25800Y-07000D02*
X25800Y-07100D01*
X25700Y-27700D02*
X25700Y-27800D01*
X25700Y-24900D02*
X25700Y-26100D01*
X25700Y-20100D02*
X25700Y-24100D01*
X25700Y-11000D02*
X25700Y-11900D01*
X25700Y-08700D02*
X25700Y-10100D01*
X25700Y-07000D02*
X25700Y-07100D01*
X25600Y-27700D02*
X25600Y-27800D01*
X25600Y-24900D02*
X25600Y-26100D01*
X25600Y-20100D02*
X25600Y-24100D01*
X25600Y-10900D02*
X25600Y-11900D01*
X25600Y-08700D02*
X25600Y-10100D01*
X25600Y-07000D02*
X25600Y-07100D01*
X25500Y-27700D02*
X25500Y-27800D01*
X25500Y-24900D02*
X25500Y-26100D01*
X25500Y-20100D02*
X25500Y-24100D01*
X25500Y-10900D02*
X25500Y-11900D01*
X25500Y-08700D02*
X25500Y-10100D01*
X25500Y-07000D02*
X25500Y-07100D01*
X25400Y-27700D02*
X25400Y-27800D01*
X25400Y-24900D02*
X25400Y-26100D01*
X25400Y-20100D02*
X25400Y-24100D01*
X25400Y-10900D02*
X25400Y-11900D01*
X25400Y-08700D02*
X25400Y-10100D01*
X25400Y-07000D02*
X25400Y-07100D01*
X25300Y-27700D02*
X25300Y-27800D01*
X25300Y-24900D02*
X25300Y-26100D01*
X25300Y-20100D02*
X25300Y-24100D01*
X25300Y-10900D02*
X25300Y-11900D01*
X25300Y-08700D02*
X25300Y-10100D01*
X25300Y-07000D02*
X25300Y-07100D01*
X25200Y-27700D02*
X25200Y-27800D01*
X25200Y-24900D02*
X25200Y-26000D01*
X25200Y-22500D02*
X25200Y-24100D01*
X25200Y-20100D02*
X25200Y-22000D01*
X25200Y-10900D02*
X25200Y-11900D01*
X25200Y-08700D02*
X25200Y-10100D01*
X25200Y-07000D02*
X25200Y-07100D01*
X25100Y-26700D02*
X25100Y-27800D01*
X25100Y-24900D02*
X25100Y-25800D01*
X25100Y-20100D02*
X25100Y-21800D01*
X25100Y-10900D02*
X25100Y-11900D01*
X25100Y-08700D02*
X25100Y-10100D01*
X25100Y-07000D02*
X25100Y-07100D01*
X25000Y-26700D02*
X25000Y-27800D01*
X25000Y-24900D02*
X25000Y-25800D01*
X25000Y-20100D02*
X25000Y-21800D01*
X25000Y-10900D02*
X25000Y-11900D01*
X25000Y-08700D02*
X25000Y-10100D01*
X25000Y-07000D02*
X25000Y-07100D01*
X24900Y-26800D02*
X24900Y-27800D01*
X24900Y-24900D02*
X24900Y-25700D01*
X24900Y-20100D02*
X24900Y-21700D01*
X24900Y-10900D02*
X24900Y-11900D01*
X24900Y-08700D02*
X24900Y-10100D01*
X24900Y-07000D02*
X24900Y-07100D01*
X24800Y-26900D02*
X24800Y-27800D01*
X24800Y-24900D02*
X24800Y-25700D01*
X24800Y-20100D02*
X24800Y-21700D01*
X24800Y-10900D02*
X24800Y-11900D01*
X24800Y-08700D02*
X24800Y-10100D01*
X24800Y-07000D02*
X24800Y-07100D01*
X24700Y-27000D02*
X24700Y-27800D01*
X24700Y-24900D02*
X24700Y-25700D01*
X24700Y-20100D02*
X24700Y-21700D01*
X24700Y-10900D02*
X24700Y-11900D01*
X24700Y-08700D02*
X24700Y-10100D01*
X24700Y-07000D02*
X24700Y-07100D01*
X24600Y-27100D02*
X24600Y-27800D01*
X24600Y-24900D02*
X24600Y-25700D01*
X24600Y-17800D02*
X24600Y-21700D01*
X24600Y-16800D02*
X24600Y-17200D01*
X24600Y-13800D02*
X24600Y-16200D01*
X24600Y-10900D02*
X24600Y-13200D01*
X24600Y-08700D02*
X24600Y-10100D01*
X24600Y-07000D02*
X24600Y-07100D01*
X24500Y-27100D02*
X24500Y-27800D01*
X24500Y-24900D02*
X24500Y-25800D01*
X24500Y-17800D02*
X24500Y-21800D01*
X24500Y-16800D02*
X24500Y-17200D01*
X24500Y-15800D02*
X24500Y-16200D01*
X24500Y-13800D02*
X24500Y-15200D01*
X24500Y-10900D02*
X24500Y-13200D01*
X24500Y-08700D02*
X24500Y-10100D01*
X24500Y-07000D02*
X24500Y-07100D01*
X24400Y-27100D02*
X24400Y-27800D01*
X24400Y-24900D02*
X24400Y-25800D01*
X24400Y-17900D02*
X24400Y-21800D01*
X24400Y-16900D02*
X24400Y-17100D01*
X24400Y-15900D02*
X24400Y-16100D01*
X24400Y-13900D02*
X24400Y-15100D01*
X24400Y-10900D02*
X24400Y-13100D01*
X24400Y-08700D02*
X24400Y-10100D01*
X24400Y-07000D02*
X24400Y-07100D01*
X24300Y-27100D02*
X24300Y-27800D01*
X24300Y-24900D02*
X24300Y-26000D01*
X24300Y-22500D02*
X24300Y-23900D01*
X24300Y-18000D02*
X24300Y-22000D01*
X24300Y-14000D02*
X24300Y-15000D01*
X24300Y-10900D02*
X24300Y-13000D01*
X24300Y-08700D02*
X24300Y-10100D01*
X24300Y-07000D02*
X24300Y-07100D01*
X24200Y-27300D02*
X24200Y-27800D01*
X24200Y-24900D02*
X24200Y-26200D01*
X24200Y-18000D02*
X24200Y-24000D01*
X24200Y-14000D02*
X24200Y-15000D01*
X24200Y-10900D02*
X24200Y-13000D01*
X24200Y-08700D02*
X24200Y-10100D01*
X24200Y-07000D02*
X24200Y-07100D01*
X24100Y-27300D02*
X24100Y-27800D01*
X24100Y-24900D02*
X24100Y-26200D01*
X24100Y-18000D02*
X24100Y-24100D01*
X24100Y-14000D02*
X24100Y-15000D01*
X24100Y-10900D02*
X24100Y-13000D01*
X24100Y-08700D02*
X24100Y-10100D01*
X24100Y-07000D02*
X24100Y-07100D01*
X24000Y-27300D02*
X24000Y-27800D01*
X24000Y-24900D02*
X24000Y-26200D01*
X24000Y-18000D02*
X24000Y-24100D01*
X24000Y-14000D02*
X24000Y-15000D01*
X24000Y-10900D02*
X24000Y-13000D01*
X24000Y-08700D02*
X24000Y-10100D01*
X24000Y-07000D02*
X24000Y-07100D01*
X23900Y-27300D02*
X23900Y-27800D01*
X23900Y-24900D02*
X23900Y-26200D01*
X23900Y-18000D02*
X23900Y-24100D01*
X23900Y-14000D02*
X23900Y-15000D01*
X23900Y-10900D02*
X23900Y-13000D01*
X23900Y-08700D02*
X23900Y-10100D01*
X23900Y-07000D02*
X23900Y-07100D01*
X23800Y-27300D02*
X23800Y-27800D01*
X23800Y-24900D02*
X23800Y-26200D01*
X23800Y-17900D02*
X23800Y-24100D01*
X23800Y-16900D02*
X23800Y-17100D01*
X23800Y-15900D02*
X23800Y-16100D01*
X23800Y-13900D02*
X23800Y-15100D01*
X23800Y-10900D02*
X23800Y-13100D01*
X23800Y-08700D02*
X23800Y-10100D01*
X23800Y-07000D02*
X23800Y-07100D01*
X23700Y-27300D02*
X23700Y-27800D01*
X23700Y-24900D02*
X23700Y-26200D01*
X23700Y-17800D02*
X23700Y-24100D01*
X23700Y-16800D02*
X23700Y-17200D01*
X23700Y-15800D02*
X23700Y-16200D01*
X23700Y-13800D02*
X23700Y-15200D01*
X23700Y-10900D02*
X23700Y-13200D01*
X23700Y-08700D02*
X23700Y-10100D01*
X23700Y-07000D02*
X23700Y-07100D01*
X23600Y-27300D02*
X23600Y-27800D01*
X23600Y-24900D02*
X23600Y-26200D01*
X23600Y-10900D02*
X23600Y-24100D01*
X23600Y-08700D02*
X23600Y-10100D01*
X23600Y-07000D02*
X23600Y-07100D01*
X23500Y-27300D02*
X23500Y-27800D01*
X23500Y-24900D02*
X23500Y-26200D01*
X23500Y-10900D02*
X23500Y-24100D01*
X23500Y-08700D02*
X23500Y-10100D01*
X23500Y-07000D02*
X23500Y-07100D01*
X23400Y-27300D02*
X23400Y-27800D01*
X23400Y-24900D02*
X23400Y-26200D01*
X23400Y-10900D02*
X23400Y-24100D01*
X23400Y-08700D02*
X23400Y-10100D01*
X23400Y-07000D02*
X23400Y-07100D01*
X23300Y-27300D02*
X23300Y-27800D01*
X23300Y-24900D02*
X23300Y-26200D01*
X23300Y-10900D02*
X23300Y-24100D01*
X23300Y-08700D02*
X23300Y-10100D01*
X23300Y-07000D02*
X23300Y-07100D01*
X23200Y-27000D02*
X23200Y-27800D01*
X23200Y-24900D02*
X23200Y-26500D01*
X23200Y-10900D02*
X23200Y-24100D01*
X23200Y-08700D02*
X23200Y-10100D01*
X23200Y-07000D02*
X23200Y-07100D01*
X23100Y-27100D02*
X23100Y-27800D01*
X23100Y-24900D02*
X23100Y-26400D01*
X23100Y-10900D02*
X23100Y-24100D01*
X23100Y-08700D02*
X23100Y-10100D01*
X23100Y-07000D02*
X23100Y-07100D01*
X23000Y-27200D02*
X23000Y-27800D01*
X23000Y-24900D02*
X23000Y-26300D01*
X23000Y-10900D02*
X23000Y-24100D01*
X23000Y-08700D02*
X23000Y-10100D01*
X23000Y-07000D02*
X23000Y-07100D01*
X22900Y-27300D02*
X22900Y-27800D01*
X22900Y-24900D02*
X22900Y-26200D01*
X22900Y-10900D02*
X22900Y-24100D01*
X22900Y-08700D02*
X22900Y-10100D01*
X22900Y-07000D02*
X22900Y-07100D01*
X22800Y-27300D02*
X22800Y-27800D01*
X22800Y-24900D02*
X22800Y-26200D01*
X22800Y-10900D02*
X22800Y-24100D01*
X22800Y-08700D02*
X22800Y-10100D01*
X22800Y-07000D02*
X22800Y-07100D01*
X22700Y-27300D02*
X22700Y-27800D01*
X22700Y-24900D02*
X22700Y-26200D01*
X22700Y-10900D02*
X22700Y-24100D01*
X22700Y-08700D02*
X22700Y-10100D01*
X22700Y-07000D02*
X22700Y-07100D01*
X22600Y-27300D02*
X22600Y-27800D01*
X22600Y-24900D02*
X22600Y-26200D01*
X22600Y-10900D02*
X22600Y-24100D01*
X22600Y-08700D02*
X22600Y-10100D01*
X22600Y-07000D02*
X22600Y-07100D01*
X22500Y-27200D02*
X22500Y-27800D01*
X22500Y-24900D02*
X22500Y-26300D01*
X22500Y-10900D02*
X22500Y-24100D01*
X22500Y-08700D02*
X22500Y-10100D01*
X22500Y-07000D02*
X22500Y-07100D01*
X22400Y-27100D02*
X22400Y-27800D01*
X22400Y-24900D02*
X22400Y-26400D01*
X22400Y-10900D02*
X22400Y-24100D01*
X22400Y-08700D02*
X22400Y-10100D01*
X22400Y-07000D02*
X22400Y-07100D01*
X22300Y-27000D02*
X22300Y-27800D01*
X22300Y-24900D02*
X22300Y-26500D01*
X22300Y-10900D02*
X22300Y-24100D01*
X22300Y-08700D02*
X22300Y-10100D01*
X22300Y-07000D02*
X22300Y-07100D01*
X22200Y-24900D02*
X22200Y-27800D01*
X22200Y-10900D02*
X22200Y-24100D01*
X22200Y-08700D02*
X22200Y-10100D01*
X22200Y-07000D02*
X22200Y-07100D01*
X22100Y-24900D02*
X22100Y-27800D01*
X22100Y-10900D02*
X22100Y-24100D01*
X22100Y-08700D02*
X22100Y-10100D01*
X22100Y-07000D02*
X22100Y-07100D01*
X22000Y-24900D02*
X22000Y-27800D01*
X22000Y-10900D02*
X22000Y-24100D01*
X22000Y-08700D02*
X22000Y-10100D01*
X22000Y-07000D02*
X22000Y-07100D01*
X21900Y-27600D02*
X21900Y-27800D01*
X21900Y-24900D02*
X21900Y-26900D01*
X21900Y-10900D02*
X21900Y-24100D01*
X21900Y-08700D02*
X21900Y-10100D01*
X21900Y-07000D02*
X21900Y-07100D01*
X21800Y-27700D02*
X21800Y-27800D01*
X21800Y-24900D02*
X21800Y-26800D01*
X21800Y-10900D02*
X21800Y-24100D01*
X21800Y-08700D02*
X21800Y-10100D01*
X21800Y-07000D02*
X21800Y-07100D01*
X21700Y-27700D02*
X21700Y-27800D01*
X21700Y-24900D02*
X21700Y-26800D01*
X21700Y-10900D02*
X21700Y-24100D01*
X21700Y-08700D02*
X21700Y-10100D01*
X21700Y-07000D02*
X21700Y-07100D01*
X21600Y-24900D02*
X21600Y-26700D01*
X21600Y-10900D02*
X21600Y-24100D01*
X21600Y-08700D02*
X21600Y-10100D01*
X21600Y-07000D02*
X21600Y-07100D01*
X21500Y-24900D02*
X21500Y-26700D01*
X21500Y-10900D02*
X21500Y-24100D01*
X21500Y-08700D02*
X21500Y-10100D01*
X21500Y-07000D02*
X21500Y-07100D01*
X21400Y-24900D02*
X21400Y-26700D01*
X21400Y-10900D02*
X21400Y-24100D01*
X21400Y-08700D02*
X21400Y-10100D01*
X21400Y-07000D02*
X21400Y-07100D01*
X21300Y-27700D02*
X21300Y-27800D01*
X21300Y-24900D02*
X21300Y-26800D01*
X21300Y-10900D02*
X21300Y-24100D01*
X21300Y-08700D02*
X21300Y-10100D01*
X21300Y-07000D02*
X21300Y-07100D01*
X21200Y-27700D02*
X21200Y-27800D01*
X21200Y-24900D02*
X21200Y-26800D01*
X21200Y-10900D02*
X21200Y-24100D01*
X21200Y-08700D02*
X21200Y-10100D01*
X21200Y-07000D02*
X21200Y-07100D01*
X21100Y-27600D02*
X21100Y-27800D01*
X21100Y-24900D02*
X21100Y-26900D01*
X21100Y-10900D02*
X21100Y-24100D01*
X21100Y-08700D02*
X21100Y-10100D01*
X21100Y-07000D02*
X21100Y-07100D01*
X21000Y-24900D02*
X21000Y-27800D01*
X21000Y-10900D02*
X21000Y-24100D01*
X21000Y-08700D02*
X21000Y-10100D01*
X21000Y-07000D02*
X21000Y-07100D01*
X20900Y-26600D02*
X20900Y-26700D01*
X20900Y-24900D02*
X20900Y-25900D01*
X20900Y-22600D02*
X20900Y-24100D01*
X20900Y-10900D02*
X20900Y-21900D01*
X20900Y-08700D02*
X20900Y-10100D01*
X20900Y-07000D02*
X20900Y-07100D01*
X20800Y-24900D02*
X20800Y-25800D01*
X20800Y-10900D02*
X20800Y-21800D01*
X20800Y-08700D02*
X20800Y-10100D01*
X20800Y-07000D02*
X20800Y-07100D01*
X20700Y-24900D02*
X20700Y-25700D01*
X20700Y-10900D02*
X20700Y-21700D01*
X20700Y-08700D02*
X20700Y-10100D01*
X20700Y-07000D02*
X20700Y-07100D01*
X20600Y-24900D02*
X20600Y-25700D01*
X20600Y-10900D02*
X20600Y-21700D01*
X20600Y-08700D02*
X20600Y-10100D01*
X20600Y-07000D02*
X20600Y-07100D01*
X20500Y-24900D02*
X20500Y-25700D01*
X20500Y-10900D02*
X20500Y-21700D01*
X20500Y-08700D02*
X20500Y-10100D01*
X20500Y-07000D02*
X20500Y-07100D01*
X20400Y-24900D02*
X20400Y-25700D01*
X20400Y-10900D02*
X20400Y-21700D01*
X20400Y-08700D02*
X20400Y-10100D01*
X20400Y-07000D02*
X20400Y-07100D01*
X20300Y-24900D02*
X20300Y-25700D01*
X20300Y-10900D02*
X20300Y-21700D01*
X20300Y-08700D02*
X20300Y-10100D01*
X20300Y-07000D02*
X20300Y-07100D01*
X20200Y-24900D02*
X20200Y-25800D01*
X20200Y-10900D02*
X20200Y-21800D01*
X20200Y-08700D02*
X20200Y-10100D01*
X20200Y-07000D02*
X20200Y-07100D01*
X20100Y-26600D02*
X20100Y-26700D01*
X20100Y-24900D02*
X20100Y-25900D01*
X20100Y-22600D02*
X20100Y-23800D01*
X20100Y-10900D02*
X20100Y-21900D01*
X20100Y-08700D02*
X20100Y-10100D01*
X20100Y-07000D02*
X20100Y-07100D01*
X20000Y-24900D02*
X20000Y-27800D01*
X20000Y-10900D02*
X20000Y-23900D01*
X20000Y-08700D02*
X20000Y-10100D01*
X20000Y-07000D02*
X20000Y-07100D01*
X19900Y-24900D02*
X19900Y-27800D01*
X19900Y-10900D02*
X19900Y-24000D01*
X19900Y-08700D02*
X19900Y-10100D01*
X19900Y-07000D02*
X19900Y-07100D01*
X19800Y-24900D02*
X19800Y-27800D01*
X19800Y-10900D02*
X19800Y-24100D01*
X19800Y-08700D02*
X19800Y-10100D01*
X19800Y-07000D02*
X19800Y-07100D01*
X19700Y-24900D02*
X19700Y-27800D01*
X19700Y-10900D02*
X19700Y-24100D01*
X19700Y-08700D02*
X19700Y-10100D01*
X19700Y-07000D02*
X19700Y-07100D01*
X19600Y-24900D02*
X19600Y-27800D01*
X19600Y-10900D02*
X19600Y-24100D01*
X19600Y-08300D02*
X19600Y-10100D01*
X19600Y-07000D02*
X19600Y-07500D01*
X19500Y-24900D02*
X19500Y-27800D01*
X19500Y-10900D02*
X19500Y-24100D01*
X19500Y-08500D02*
X19500Y-10100D01*
X19500Y-07000D02*
X19500Y-07300D01*
X19400Y-25800D02*
X19400Y-27800D01*
X19400Y-25000D02*
X19400Y-25200D01*
X19400Y-10900D02*
X19400Y-24000D01*
X19400Y-08600D02*
X19400Y-10100D01*
X19400Y-07000D02*
X19400Y-07200D01*
X19300Y-25900D02*
X19300Y-27800D01*
X19300Y-25000D02*
X19300Y-25100D01*
X19300Y-10900D02*
X19300Y-24000D01*
X19300Y-08700D02*
X19300Y-10100D01*
X19300Y-07000D02*
X19300Y-07100D01*
X19200Y-26000D02*
X19200Y-27800D01*
X19200Y-10900D02*
X19200Y-24000D01*
X19200Y-08800D02*
X19200Y-10100D01*
X19100Y-26000D02*
X19100Y-27800D01*
X19100Y-10900D02*
X19100Y-24000D01*
X19100Y-08800D02*
X19100Y-10100D01*
X19000Y-26000D02*
X19000Y-27800D01*
X19000Y-10900D02*
X19000Y-24000D01*
X19000Y-08900D02*
X19000Y-10100D01*
X18900Y-26000D02*
X18900Y-27800D01*
X18900Y-10900D02*
X18900Y-24000D01*
X18900Y-08900D02*
X18900Y-10100D01*
X18800Y-26000D02*
X18800Y-27800D01*
X18800Y-10900D02*
X18800Y-24000D01*
X18800Y-08900D02*
X18800Y-10100D01*
X18700Y-25900D02*
X18700Y-27800D01*
X18700Y-25000D02*
X18700Y-25100D01*
X18700Y-10900D02*
X18700Y-24000D01*
X18700Y-08900D02*
X18700Y-10100D01*
X18600Y-25800D02*
X18600Y-27800D01*
X18600Y-25000D02*
X18600Y-25200D01*
X18600Y-10900D02*
X18600Y-24000D01*
X18600Y-08900D02*
X18600Y-10100D01*
X18500Y-24900D02*
X18500Y-27800D01*
X18500Y-10900D02*
X18500Y-24100D01*
X18500Y-08900D02*
X18500Y-10100D01*
X18400Y-24900D02*
X18400Y-27800D01*
X18400Y-20000D02*
X18400Y-24100D01*
X18400Y-10900D02*
X18400Y-16000D01*
X18400Y-08900D02*
X18400Y-10100D01*
X18300Y-24900D02*
X18300Y-27800D01*
X18300Y-20000D02*
X18300Y-24100D01*
X18300Y-10900D02*
X18300Y-16000D01*
X18300Y-08800D02*
X18300Y-10100D01*
X18200Y-24900D02*
X18200Y-27800D01*
X18200Y-20000D02*
X18200Y-24100D01*
X18200Y-10900D02*
X18200Y-16000D01*
X18200Y-08800D02*
X18200Y-10100D01*
X18100Y-24900D02*
X18100Y-27800D01*
X18100Y-20000D02*
X18100Y-24100D01*
X18100Y-10900D02*
X18100Y-16000D01*
X18100Y-08700D02*
X18100Y-10100D01*
X18100Y-07000D02*
X18100Y-07100D01*
X18000Y-24900D02*
X18000Y-27800D01*
X18000Y-20000D02*
X18000Y-24100D01*
X18000Y-10900D02*
X18000Y-16000D01*
X18000Y-08600D02*
X18000Y-10100D01*
X18000Y-07000D02*
X18000Y-07200D01*
X17900Y-24900D02*
X17900Y-27800D01*
X17900Y-20000D02*
X17900Y-24100D01*
X17900Y-10900D02*
X17900Y-16000D01*
X17900Y-08500D02*
X17900Y-10100D01*
X17900Y-07000D02*
X17900Y-07300D01*
X17800Y-25000D02*
X17800Y-27800D01*
X17800Y-20000D02*
X17800Y-24000D01*
X17800Y-10900D02*
X17800Y-16000D01*
X17800Y-08300D02*
X17800Y-10100D01*
X17800Y-07000D02*
X17800Y-07500D01*
X17700Y-25100D02*
X17700Y-27800D01*
X17700Y-20000D02*
X17700Y-23900D01*
X17700Y-10900D02*
X17700Y-16000D01*
X17700Y-07000D02*
X17700Y-10100D01*
X17600Y-25100D02*
X17600Y-27800D01*
X17600Y-20000D02*
X17600Y-23900D01*
X17600Y-10900D02*
X17600Y-16000D01*
X17600Y-07000D02*
X17600Y-10100D01*
X17500Y-25100D02*
X17500Y-27800D01*
X17500Y-20000D02*
X17500Y-23900D01*
X17500Y-10900D02*
X17500Y-16000D01*
X17500Y-07000D02*
X17500Y-10100D01*
X17400Y-25100D02*
X17400Y-27800D01*
X17400Y-20000D02*
X17400Y-23900D01*
X17400Y-10900D02*
X17400Y-16000D01*
X17400Y-07000D02*
X17400Y-10100D01*
X17300Y-25100D02*
X17300Y-27800D01*
X17300Y-20000D02*
X17300Y-23900D01*
X17300Y-10900D02*
X17300Y-16000D01*
X17300Y-07000D02*
X17300Y-10100D01*
X17200Y-25000D02*
X17200Y-27800D01*
X17200Y-20000D02*
X17200Y-24000D01*
X17200Y-10900D02*
X17200Y-16000D01*
X17200Y-07000D02*
X17200Y-10100D01*
X17100Y-24900D02*
X17100Y-27800D01*
X17100Y-20000D02*
X17100Y-24100D01*
X17100Y-10900D02*
X17100Y-16000D01*
X17100Y-07000D02*
X17100Y-10100D01*
X17000Y-25100D02*
X17000Y-27800D01*
X17000Y-20000D02*
X17000Y-23900D01*
X17000Y-10900D02*
X17000Y-16000D01*
X17000Y-07000D02*
X17000Y-10100D01*
X16900Y-25100D02*
X16900Y-27800D01*
X16900Y-20000D02*
X16900Y-23900D01*
X16900Y-10900D02*
X16900Y-16000D01*
X16900Y-07000D02*
X16900Y-10100D01*
X16800Y-25100D02*
X16800Y-27800D01*
X16800Y-20000D02*
X16800Y-23900D01*
X16800Y-10900D02*
X16800Y-16000D01*
X16800Y-07000D02*
X16800Y-10100D01*
X16700Y-25100D02*
X16700Y-27800D01*
X16700Y-20000D02*
X16700Y-23900D01*
X16700Y-10900D02*
X16700Y-16000D01*
X16700Y-07000D02*
X16700Y-10100D01*
X16600Y-25100D02*
X16600Y-27800D01*
X16600Y-20000D02*
X16600Y-23900D01*
X16600Y-10900D02*
X16600Y-16000D01*
X16600Y-07000D02*
X16600Y-10100D01*
X16500Y-25100D02*
X16500Y-27800D01*
X16500Y-20000D02*
X16500Y-23900D01*
X16500Y-10900D02*
X16500Y-16000D01*
X16500Y-07000D02*
X16500Y-10100D01*
X16400Y-25100D02*
X16400Y-27800D01*
X16400Y-20000D02*
X16400Y-23900D01*
X16400Y-10900D02*
X16400Y-16000D01*
X16400Y-07000D02*
X16400Y-10100D01*
X16300Y-25100D02*
X16300Y-27800D01*
X16300Y-20000D02*
X16300Y-23900D01*
X16300Y-10900D02*
X16300Y-16000D01*
X16300Y-07000D02*
X16300Y-10100D01*
X16200Y-25100D02*
X16200Y-27800D01*
X16200Y-20000D02*
X16200Y-23900D01*
X16200Y-10900D02*
X16200Y-16000D01*
X16200Y-07000D02*
X16200Y-10100D01*
X16100Y-25100D02*
X16100Y-27800D01*
X16100Y-20000D02*
X16100Y-23900D01*
X16100Y-10900D02*
X16100Y-16000D01*
X16100Y-07000D02*
X16100Y-10100D01*
X16000Y-25100D02*
X16000Y-27800D01*
X16000Y-20000D02*
X16000Y-23900D01*
X16000Y-10900D02*
X16000Y-16000D01*
X16000Y-07000D02*
X16000Y-10100D01*
X15900Y-24900D02*
X15900Y-27800D01*
X15900Y-20000D02*
X15900Y-24100D01*
X15900Y-10900D02*
X15900Y-16000D01*
X15900Y-07000D02*
X15900Y-10100D01*
X15800Y-25000D02*
X15800Y-27800D01*
X15800Y-20000D02*
X15800Y-24000D01*
X15800Y-10900D02*
X15800Y-16000D01*
X15800Y-07000D02*
X15800Y-10100D01*
X15700Y-25100D02*
X15700Y-27800D01*
X15700Y-20000D02*
X15700Y-23900D01*
X15700Y-10900D02*
X15700Y-16000D01*
X15700Y-07000D02*
X15700Y-10100D01*
X15600Y-25100D02*
X15600Y-27800D01*
X15600Y-20000D02*
X15600Y-23900D01*
X15600Y-10900D02*
X15600Y-16000D01*
X15600Y-07000D02*
X15600Y-10100D01*
X15500Y-25100D02*
X15500Y-27800D01*
X15500Y-20000D02*
X15500Y-23900D01*
X15500Y-10900D02*
X15500Y-16000D01*
X15500Y-07000D02*
X15500Y-10100D01*
X15400Y-25100D02*
X15400Y-27800D01*
X15400Y-20000D02*
X15400Y-23900D01*
X15400Y-10900D02*
X15400Y-16000D01*
X15400Y-07000D02*
X15400Y-10100D01*
X15300Y-25100D02*
X15300Y-27800D01*
X15300Y-20000D02*
X15300Y-23900D01*
X15300Y-10900D02*
X15300Y-16000D01*
X15300Y-07000D02*
X15300Y-10100D01*
X15200Y-25000D02*
X15200Y-27800D01*
X15200Y-20000D02*
X15200Y-24000D01*
X15200Y-10900D02*
X15200Y-16000D01*
X15200Y-07000D02*
X15200Y-10100D01*
X15100Y-24900D02*
X15100Y-27800D01*
X15100Y-20000D02*
X15100Y-24100D01*
X15100Y-10900D02*
X15100Y-16000D01*
X15100Y-07000D02*
X15100Y-10100D01*
X15000Y-24900D02*
X15000Y-27800D01*
X15000Y-20000D02*
X15000Y-24100D01*
X15000Y-10900D02*
X15000Y-16000D01*
X15000Y-07000D02*
X15000Y-10100D01*
X14900Y-24900D02*
X14900Y-27800D01*
X14900Y-20000D02*
X14900Y-24100D01*
X14900Y-10900D02*
X14900Y-16000D01*
X14900Y-07000D02*
X14900Y-10100D01*
X14800Y-24900D02*
X14800Y-27800D01*
X14800Y-20000D02*
X14800Y-24100D01*
X14800Y-10900D02*
X14800Y-16000D01*
X14800Y-07000D02*
X14800Y-10100D01*
X14700Y-24900D02*
X14700Y-27800D01*
X14700Y-20000D02*
X14700Y-24100D01*
X14700Y-10900D02*
X14700Y-16000D01*
X14700Y-07000D02*
X14700Y-10100D01*
X14600Y-24900D02*
X14600Y-27800D01*
X14600Y-20000D02*
X14600Y-24100D01*
X14600Y-10900D02*
X14600Y-16000D01*
X14600Y-07000D02*
X14600Y-10100D01*
X14500Y-24900D02*
X14500Y-27800D01*
X14500Y-10900D02*
X14500Y-24100D01*
X14500Y-07000D02*
X14500Y-10100D01*
X14400Y-25800D02*
X14400Y-27800D01*
X14400Y-25000D02*
X14400Y-25200D01*
X14400Y-10900D02*
X14400Y-24000D01*
X14400Y-07000D02*
X14400Y-10100D01*
X14300Y-25900D02*
X14300Y-27800D01*
X14300Y-25000D02*
X14300Y-25100D01*
X14300Y-10900D02*
X14300Y-24000D01*
X14300Y-07000D02*
X14300Y-10100D01*
X14200Y-26000D02*
X14200Y-27800D01*
X14200Y-10900D02*
X14200Y-24000D01*
X14200Y-07000D02*
X14200Y-10100D01*
X14100Y-26000D02*
X14100Y-27800D01*
X14100Y-10900D02*
X14100Y-24000D01*
X14100Y-07000D02*
X14100Y-10100D01*
X14000Y-26000D02*
X14000Y-27800D01*
X14000Y-10900D02*
X14000Y-24000D01*
X14000Y-07000D02*
X14000Y-10100D01*
X13900Y-26000D02*
X13900Y-27800D01*
X13900Y-10900D02*
X13900Y-24000D01*
X13900Y-07000D02*
X13900Y-10100D01*
X13800Y-26000D02*
X13800Y-27800D01*
X13800Y-10900D02*
X13800Y-24000D01*
X13800Y-07000D02*
X13800Y-10100D01*
X13700Y-25900D02*
X13700Y-27800D01*
X13700Y-25000D02*
X13700Y-25100D01*
X13700Y-10900D02*
X13700Y-24000D01*
X13700Y-07000D02*
X13700Y-10100D01*
X13600Y-25800D02*
X13600Y-27800D01*
X13600Y-25000D02*
X13600Y-25200D01*
X13600Y-10900D02*
X13600Y-24000D01*
X13600Y-07000D02*
X13600Y-10100D01*
X13500Y-24900D02*
X13500Y-27800D01*
X13500Y-10900D02*
X13500Y-24100D01*
X13500Y-07000D02*
X13500Y-10100D01*
X13400Y-24900D02*
X13400Y-27800D01*
X13400Y-10900D02*
X13400Y-24100D01*
X13400Y-07000D02*
X13400Y-10100D01*
X13300Y-24900D02*
X13300Y-27800D01*
X13300Y-10900D02*
X13300Y-24100D01*
X13300Y-07000D02*
X13300Y-10100D01*
X13200Y-24900D02*
X13200Y-27800D01*
X13200Y-10900D02*
X13200Y-24100D01*
X13200Y-07000D02*
X13200Y-10100D01*
X13100Y-24900D02*
X13100Y-27800D01*
X13100Y-10900D02*
X13100Y-24100D01*
X13100Y-07000D02*
X13100Y-10100D01*
X13000Y-24900D02*
X13000Y-27800D01*
X13000Y-10900D02*
X13000Y-24100D01*
X13000Y-07000D02*
X13000Y-10100D01*
X12900Y-24900D02*
X12900Y-27800D01*
X12900Y-10900D02*
X12900Y-24100D01*
X12900Y-07000D02*
X12900Y-10100D01*
X12800Y-24900D02*
X12800Y-27800D01*
X12800Y-10900D02*
X12800Y-24100D01*
X12800Y-07000D02*
X12800Y-10100D01*
X12700Y-24900D02*
X12700Y-27800D01*
X12700Y-10900D02*
X12700Y-24100D01*
X12700Y-07000D02*
X12700Y-10100D01*
X12600Y-25800D02*
X12600Y-25900D01*
X12600Y-10900D02*
X12600Y-23800D01*
X12600Y-07000D02*
X12600Y-10100D01*
X12500Y-25800D02*
X12500Y-25900D01*
X12500Y-10900D02*
X12500Y-23800D01*
X12500Y-07000D02*
X12500Y-10100D01*
X12400Y-25800D02*
X12400Y-25900D01*
X12400Y-10900D02*
X12400Y-23800D01*
X12400Y-07000D02*
X12400Y-10100D01*
X12300Y-25800D02*
X12300Y-25900D01*
X12300Y-10900D02*
X12300Y-23800D01*
X12300Y-07000D02*
X12300Y-10100D01*
X12200Y-25800D02*
X12200Y-25900D01*
X12200Y-10900D02*
X12200Y-23800D01*
X12200Y-07000D02*
X12200Y-10100D01*
X12100Y-25800D02*
X12100Y-25900D01*
X12100Y-10900D02*
X12100Y-23800D01*
X12100Y-07000D02*
X12100Y-10100D01*
X12000Y-25800D02*
X12000Y-25900D01*
X12000Y-12200D02*
X12000Y-23800D01*
X12000Y-10900D02*
X12000Y-11300D01*
X12000Y-09700D02*
X12000Y-10100D01*
X12000Y-07000D02*
X12000Y-08800D01*
X11900Y-25800D02*
X11900Y-25900D01*
X11900Y-12400D02*
X11900Y-23800D01*
X11900Y-10900D02*
X11900Y-11100D01*
X11900Y-09900D02*
X11900Y-10100D01*
X11900Y-07000D02*
X11900Y-08600D01*
X11800Y-25800D02*
X11800Y-25900D01*
X11800Y-12500D02*
X11800Y-23800D01*
X11800Y-10900D02*
X11800Y-11000D01*
X11800Y-10000D02*
X11800Y-10100D01*
X11800Y-07000D02*
X11800Y-08500D01*
X11700Y-25800D02*
X11700Y-25900D01*
X11700Y-12600D02*
X11700Y-23800D01*
X11700Y-07000D02*
X11700Y-08400D01*
X11600Y-25800D02*
X11600Y-25900D01*
X11600Y-12600D02*
X11600Y-23800D01*
X11600Y-07000D02*
X11600Y-08400D01*
X11500Y-25800D02*
X11500Y-25900D01*
X11500Y-12700D02*
X11500Y-23800D01*
X11500Y-07000D02*
X11500Y-08300D01*
X11400Y-25800D02*
X11400Y-25900D01*
X11400Y-12700D02*
X11400Y-23800D01*
X11400Y-07000D02*
X11400Y-08300D01*
X11300Y-12700D02*
X11300Y-27800D01*
X11300Y-07000D02*
X11300Y-08300D01*
X11200Y-12700D02*
X11200Y-27800D01*
X11200Y-07000D02*
X11200Y-08300D01*
X11100Y-12700D02*
X11100Y-27800D01*
X11100Y-07000D02*
X11100Y-08300D01*
X11000Y-12700D02*
X11000Y-27800D01*
X11000Y-07000D02*
X11000Y-08300D01*
X10900Y-12700D02*
X10900Y-27800D01*
X10900Y-07000D02*
X10900Y-08300D01*
X10800Y-12700D02*
X10800Y-27800D01*
X10800Y-07000D02*
X10800Y-08300D01*
X10700Y-12600D02*
X10700Y-27800D01*
X10700Y-07000D02*
X10700Y-08400D01*
X10600Y-25800D02*
X10600Y-25900D01*
X10600Y-12600D02*
X10600Y-23800D01*
X10600Y-07000D02*
X10600Y-08400D01*
X10500Y-25800D02*
X10500Y-25900D01*
X10500Y-12500D02*
X10500Y-23800D01*
X10500Y-07000D02*
X10500Y-08500D01*
X10400Y-25800D02*
X10400Y-25900D01*
X10400Y-12400D02*
X10400Y-23800D01*
X10400Y-07000D02*
X10400Y-08600D01*
X10300Y-25800D02*
X10300Y-25900D01*
X10300Y-12200D02*
X10300Y-23800D01*
X10300Y-07000D02*
X10300Y-08800D01*
X10200Y-25800D02*
X10200Y-25900D01*
X10200Y-11400D02*
X10200Y-23800D01*
X10200Y-07000D02*
X10200Y-09600D01*
X10100Y-25800D02*
X10100Y-25900D01*
X10100Y-11400D02*
X10100Y-23800D01*
X10100Y-07000D02*
X10100Y-09600D01*
X10000Y-25800D02*
X10000Y-25900D01*
X10000Y-11400D02*
X10000Y-23800D01*
X10000Y-07000D02*
X10000Y-09600D01*
X09900Y-25800D02*
X09900Y-25900D01*
X09900Y-11400D02*
X09900Y-23800D01*
X09900Y-07000D02*
X09900Y-09600D01*
X09800Y-25800D02*
X09800Y-25900D01*
X09800Y-11400D02*
X09800Y-21900D01*
X09800Y-07000D02*
X09800Y-09600D01*
X09700Y-25800D02*
X09700Y-25900D01*
X09700Y-11400D02*
X09700Y-21900D01*
X09700Y-07000D02*
X09700Y-09600D01*
X09600Y-25800D02*
X09600Y-25900D01*
X09600Y-11400D02*
X09600Y-21900D01*
X09600Y-07000D02*
X09600Y-09600D01*
X09500Y-25800D02*
X09500Y-25900D01*
X09500Y-12200D02*
X09500Y-21900D01*
X09500Y-07000D02*
X09500Y-08800D01*
X09400Y-25800D02*
X09400Y-25900D01*
X09400Y-12400D02*
X09400Y-21900D01*
X09400Y-07000D02*
X09400Y-08600D01*
X09300Y-27300D02*
X09300Y-27800D01*
X09300Y-24700D02*
X09300Y-26500D01*
X09300Y-12500D02*
X09300Y-21900D01*
X09300Y-07000D02*
X09300Y-08500D01*
X09200Y-27300D02*
X09200Y-27800D01*
X09200Y-24600D02*
X09200Y-26500D01*
X09200Y-12600D02*
X09200Y-21900D01*
X09200Y-07000D02*
X09200Y-08400D01*
X09100Y-27300D02*
X09100Y-27800D01*
X09100Y-24500D02*
X09100Y-26500D01*
X09100Y-12600D02*
X09100Y-21900D01*
X09100Y-07000D02*
X09100Y-08400D01*
X09000Y-27300D02*
X09000Y-27800D01*
X09000Y-24400D02*
X09000Y-26500D01*
X09000Y-12700D02*
X09000Y-21900D01*
X09000Y-10200D02*
X09000Y-10800D01*
X09000Y-07000D02*
X09000Y-08300D01*
X08900Y-27300D02*
X08900Y-27800D01*
X08900Y-24300D02*
X08900Y-26500D01*
X08900Y-12700D02*
X08900Y-21900D01*
X08900Y-10200D02*
X08900Y-10800D01*
X08900Y-07000D02*
X08900Y-08300D01*
X08800Y-27300D02*
X08800Y-27800D01*
X08800Y-23900D02*
X08800Y-26500D01*
X08800Y-12700D02*
X08800Y-21900D01*
X08800Y-10200D02*
X08800Y-10800D01*
X08800Y-07000D02*
X08800Y-08300D01*
X08700Y-27300D02*
X08700Y-27800D01*
X08700Y-23900D02*
X08700Y-26500D01*
X08700Y-12700D02*
X08700Y-21900D01*
X08700Y-10200D02*
X08700Y-10800D01*
X08700Y-07000D02*
X08700Y-08300D01*
X08600Y-27300D02*
X08600Y-27800D01*
X08600Y-23900D02*
X08600Y-26500D01*
X08600Y-12700D02*
X08600Y-21900D01*
X08600Y-10200D02*
X08600Y-10800D01*
X08600Y-07000D02*
X08600Y-08300D01*
X08500Y-27300D02*
X08500Y-27800D01*
X08500Y-12700D02*
X08500Y-26500D01*
X08500Y-10200D02*
X08500Y-10800D01*
X08500Y-07000D02*
X08500Y-08300D01*
X08400Y-27300D02*
X08400Y-27800D01*
X08400Y-25700D02*
X08400Y-26500D01*
X08400Y-12700D02*
X08400Y-24100D01*
X08400Y-10200D02*
X08400Y-10800D01*
X08400Y-07000D02*
X08400Y-08300D01*
X08300Y-27300D02*
X08300Y-27800D01*
X08300Y-25700D02*
X08300Y-26500D01*
X08300Y-12700D02*
X08300Y-24100D01*
X08300Y-10200D02*
X08300Y-10800D01*
X08300Y-07000D02*
X08300Y-08300D01*
X08200Y-27400D02*
X08200Y-27800D01*
X08200Y-25700D02*
X08200Y-26400D01*
X08200Y-12600D02*
X08200Y-24100D01*
X08200Y-10100D02*
X08200Y-10900D01*
X08200Y-07000D02*
X08200Y-08400D01*
X08100Y-27500D02*
X08100Y-27800D01*
X08100Y-25700D02*
X08100Y-26300D01*
X08100Y-12600D02*
X08100Y-24100D01*
X08100Y-10100D02*
X08100Y-10900D01*
X08100Y-07000D02*
X08100Y-08400D01*
X08000Y-27600D02*
X08000Y-27800D01*
X08000Y-25700D02*
X08000Y-26200D01*
X08000Y-12500D02*
X08000Y-23100D01*
X08000Y-10000D02*
X08000Y-11000D01*
X08000Y-07000D02*
X08000Y-08500D01*
X07900Y-27600D02*
X07900Y-27800D01*
X07900Y-25700D02*
X07900Y-26200D01*
X07900Y-12400D02*
X07900Y-23000D01*
X07900Y-09900D02*
X07900Y-11100D01*
X07900Y-07000D02*
X07900Y-08600D01*
X07800Y-27600D02*
X07800Y-27800D01*
X07800Y-25700D02*
X07800Y-26200D01*
X07800Y-12200D02*
X07800Y-21900D01*
X07800Y-09700D02*
X07800Y-11300D01*
X07800Y-07000D02*
X07800Y-08800D01*
X07700Y-27600D02*
X07700Y-27800D01*
X07700Y-25700D02*
X07700Y-26200D01*
X07700Y-07000D02*
X07700Y-21900D01*
X07600Y-27600D02*
X07600Y-27800D01*
X07600Y-25700D02*
X07600Y-26200D01*
X07600Y-07000D02*
X07600Y-21900D01*
X07500Y-27600D02*
X07500Y-27800D01*
X07500Y-25700D02*
X07500Y-26200D01*
X07500Y-07000D02*
X07500Y-21900D01*
X07400Y-27600D02*
X07400Y-27800D01*
X07400Y-25700D02*
X07400Y-26200D01*
X07400Y-07000D02*
X07400Y-21900D01*
X07300Y-27500D02*
X07300Y-27800D01*
X07300Y-25700D02*
X07300Y-26300D01*
X07300Y-23900D02*
X07300Y-24100D01*
X07300Y-07000D02*
X07300Y-21900D01*
X07200Y-27400D02*
X07200Y-27800D01*
X07200Y-25700D02*
X07200Y-26400D01*
X07200Y-23900D02*
X07200Y-24100D01*
X07200Y-07000D02*
X07200Y-21900D01*
X07100Y-27300D02*
X07100Y-27800D01*
X07100Y-25700D02*
X07100Y-26500D01*
X07100Y-23900D02*
X07100Y-24100D01*
X07100Y-07000D02*
X07100Y-21900D01*
X07000Y-25700D02*
X07000Y-27800D01*
X07000Y-23900D02*
X07000Y-24100D01*
X07000Y-07000D02*
X07000Y-21900D01*
X06900Y-23900D02*
X06900Y-27800D01*
X06900Y-07000D02*
X06900Y-21900D01*
X06800Y-23900D02*
X06800Y-27800D01*
X06800Y-07000D02*
X06800Y-21900D01*
X06700Y-23900D02*
X06700Y-27800D01*
X06700Y-07000D02*
X06700Y-21900D01*
X06600Y-23900D02*
X06600Y-27800D01*
X06600Y-07000D02*
X06600Y-21900D01*
X06500Y-07000D02*
X06500Y-27800D01*
X06400Y-07000D02*
X06400Y-27800D01*
X06300Y-07000D02*
X06300Y-27800D01*
X12700Y-27800D02*
X38600Y-27800D01*
X10700Y-27800D02*
X11300Y-27800D01*
X06300Y-27800D02*
X09300Y-27800D01*
X21700Y-27700D02*
X38600Y-27700D01*
X21000Y-27700D02*
X21300Y-27700D01*
X12700Y-27700D02*
X20000Y-27700D01*
X10700Y-27700D02*
X11300Y-27700D01*
X06300Y-27700D02*
X09300Y-27700D01*
X38300Y-27600D02*
X38600Y-27600D01*
X31300Y-27600D02*
X32100Y-27600D01*
X21900Y-27600D02*
X25100Y-27600D01*
X21000Y-27600D02*
X21100Y-27600D01*
X12700Y-27600D02*
X20000Y-27600D01*
X10700Y-27600D02*
X11300Y-27600D01*
X06300Y-27600D02*
X09300Y-27600D01*
X38300Y-27500D02*
X38600Y-27500D01*
X31300Y-27500D02*
X32100Y-27500D01*
X22000Y-27500D02*
X25100Y-27500D01*
X12700Y-27500D02*
X20000Y-27500D01*
X10700Y-27500D02*
X11300Y-27500D01*
X08100Y-27500D02*
X09300Y-27500D01*
X06300Y-27500D02*
X07300Y-27500D01*
X38300Y-27400D02*
X38600Y-27400D01*
X31300Y-27400D02*
X32100Y-27400D01*
X22000Y-27400D02*
X25100Y-27400D01*
X12700Y-27400D02*
X20000Y-27400D01*
X10700Y-27400D02*
X11300Y-27400D01*
X08200Y-27400D02*
X09300Y-27400D01*
X06300Y-27400D02*
X07200Y-27400D01*
X38300Y-27300D02*
X38600Y-27300D01*
X31300Y-27300D02*
X32100Y-27300D01*
X22000Y-27300D02*
X25100Y-27300D01*
X12700Y-27300D02*
X20000Y-27300D01*
X10700Y-27300D02*
X11300Y-27300D01*
X08300Y-27300D02*
X09300Y-27300D01*
X06300Y-27300D02*
X07100Y-27300D01*
X38300Y-27200D02*
X38600Y-27200D01*
X31300Y-27200D02*
X32100Y-27200D01*
X24300Y-27200D02*
X25100Y-27200D01*
X23000Y-27200D02*
X23200Y-27200D01*
X22000Y-27200D02*
X22500Y-27200D01*
X12700Y-27200D02*
X20000Y-27200D01*
X10700Y-27200D02*
X11300Y-27200D01*
X06300Y-27200D02*
X07000Y-27200D01*
X38300Y-27100D02*
X38600Y-27100D01*
X31300Y-27100D02*
X32100Y-27100D01*
X24300Y-27100D02*
X25100Y-27100D01*
X23100Y-27100D02*
X23200Y-27100D01*
X22000Y-27100D02*
X22400Y-27100D01*
X12700Y-27100D02*
X20000Y-27100D01*
X10700Y-27100D02*
X11300Y-27100D01*
X06300Y-27100D02*
X07000Y-27100D01*
X38300Y-27000D02*
X38600Y-27000D01*
X31300Y-27000D02*
X32100Y-27000D01*
X24700Y-27000D02*
X25100Y-27000D01*
X22000Y-27000D02*
X22300Y-27000D01*
X12700Y-27000D02*
X20000Y-27000D01*
X10700Y-27000D02*
X11300Y-27000D01*
X06300Y-27000D02*
X07000Y-27000D01*
X38300Y-26900D02*
X38600Y-26900D01*
X31300Y-26900D02*
X32100Y-26900D01*
X24800Y-26900D02*
X25100Y-26900D01*
X21900Y-26900D02*
X22200Y-26900D01*
X21000Y-26900D02*
X21100Y-26900D01*
X12700Y-26900D02*
X20000Y-26900D01*
X10700Y-26900D02*
X11300Y-26900D01*
X06300Y-26900D02*
X07000Y-26900D01*
X38300Y-26800D02*
X38700Y-26800D01*
X31300Y-26800D02*
X32100Y-26800D01*
X24900Y-26800D02*
X25100Y-26800D01*
X21700Y-26800D02*
X22200Y-26800D01*
X21000Y-26800D02*
X21300Y-26800D01*
X12700Y-26800D02*
X20000Y-26800D01*
X10700Y-26800D02*
X11300Y-26800D01*
X06300Y-26800D02*
X07000Y-26800D01*
X38300Y-26700D02*
X38800Y-26700D01*
X31300Y-26700D02*
X32100Y-26700D01*
X25000Y-26700D02*
X25100Y-26700D01*
X20800Y-26700D02*
X22200Y-26700D01*
X12700Y-26700D02*
X20200Y-26700D01*
X10700Y-26700D02*
X11300Y-26700D01*
X06300Y-26700D02*
X07000Y-26700D01*
X38300Y-26600D02*
X38900Y-26600D01*
X31300Y-26600D02*
X32100Y-26600D01*
X20900Y-26600D02*
X22200Y-26600D01*
X12700Y-26600D02*
X20100Y-26600D01*
X10700Y-26600D02*
X11300Y-26600D01*
X06300Y-26600D02*
X07000Y-26600D01*
X38300Y-26500D02*
X39000Y-26500D01*
X31300Y-26500D02*
X32100Y-26500D01*
X21000Y-26500D02*
X22300Y-26500D01*
X12700Y-26500D02*
X20000Y-26500D01*
X10700Y-26500D02*
X11300Y-26500D01*
X08300Y-26500D02*
X09300Y-26500D01*
X06300Y-26500D02*
X07100Y-26500D01*
X38300Y-26400D02*
X39100Y-26400D01*
X31300Y-26400D02*
X32100Y-26400D01*
X23100Y-26400D02*
X23200Y-26400D01*
X21000Y-26400D02*
X22400Y-26400D01*
X12700Y-26400D02*
X20000Y-26400D01*
X10700Y-26400D02*
X11300Y-26400D01*
X08200Y-26400D02*
X09300Y-26400D01*
X06300Y-26400D02*
X07200Y-26400D01*
X38300Y-26300D02*
X39200Y-26300D01*
X31300Y-26300D02*
X32100Y-26300D01*
X23000Y-26300D02*
X23200Y-26300D01*
X21000Y-26300D02*
X22500Y-26300D01*
X12700Y-26300D02*
X20000Y-26300D01*
X10700Y-26300D02*
X11300Y-26300D01*
X08100Y-26300D02*
X09300Y-26300D01*
X06300Y-26300D02*
X07300Y-26300D01*
X38300Y-26200D02*
X39300Y-26200D01*
X31300Y-26200D02*
X32100Y-26200D01*
X21000Y-26200D02*
X24200Y-26200D01*
X12700Y-26200D02*
X20000Y-26200D01*
X10700Y-26200D02*
X11300Y-26200D01*
X06300Y-26200D02*
X09300Y-26200D01*
X25300Y-26100D02*
X39400Y-26100D01*
X21000Y-26100D02*
X24200Y-26100D01*
X12700Y-26100D02*
X20000Y-26100D01*
X10700Y-26100D02*
X11300Y-26100D01*
X06300Y-26100D02*
X09300Y-26100D01*
X25200Y-26000D02*
X39500Y-26000D01*
X21000Y-26000D02*
X24300Y-26000D01*
X12700Y-26000D02*
X20000Y-26000D01*
X10700Y-26000D02*
X11300Y-26000D01*
X06300Y-26000D02*
X09300Y-26000D01*
X25200Y-25900D02*
X39600Y-25900D01*
X20900Y-25900D02*
X24300Y-25900D01*
X19300Y-25900D02*
X20100Y-25900D01*
X14300Y-25900D02*
X18700Y-25900D01*
X06300Y-25900D02*
X13700Y-25900D01*
X39100Y-25800D02*
X39600Y-25800D01*
X25000Y-25800D02*
X38300Y-25800D01*
X20800Y-25800D02*
X24500Y-25800D01*
X19400Y-25800D02*
X20200Y-25800D01*
X14400Y-25800D02*
X18600Y-25800D01*
X06300Y-25800D02*
X13600Y-25800D01*
X39300Y-25700D02*
X39600Y-25700D01*
X19500Y-25700D02*
X38100Y-25700D01*
X14500Y-25700D02*
X18500Y-25700D01*
X12700Y-25700D02*
X13500Y-25700D01*
X10700Y-25700D02*
X11300Y-25700D01*
X06300Y-25700D02*
X09300Y-25700D01*
X39400Y-25600D02*
X39600Y-25600D01*
X19500Y-25600D02*
X38000Y-25600D01*
X14500Y-25600D02*
X18500Y-25600D01*
X12700Y-25600D02*
X13500Y-25600D01*
X10700Y-25600D02*
X11300Y-25600D01*
X08500Y-25600D02*
X09300Y-25600D01*
X06300Y-25600D02*
X06900Y-25600D01*
X39500Y-25500D02*
X39600Y-25500D01*
X19500Y-25500D02*
X37900Y-25500D01*
X14500Y-25500D02*
X18500Y-25500D01*
X12700Y-25500D02*
X13500Y-25500D01*
X10700Y-25500D02*
X11300Y-25500D01*
X08500Y-25500D02*
X09300Y-25500D01*
X06300Y-25500D02*
X06900Y-25500D01*
X19500Y-25400D02*
X37800Y-25400D01*
X14500Y-25400D02*
X18500Y-25400D01*
X12700Y-25400D02*
X13500Y-25400D01*
X10700Y-25400D02*
X11300Y-25400D01*
X08500Y-25400D02*
X09300Y-25400D01*
X06300Y-25400D02*
X06900Y-25400D01*
X19500Y-25300D02*
X37800Y-25300D01*
X14500Y-25300D02*
X18500Y-25300D01*
X12700Y-25300D02*
X13500Y-25300D01*
X10700Y-25300D02*
X11300Y-25300D01*
X08500Y-25300D02*
X09300Y-25300D01*
X06300Y-25300D02*
X06900Y-25300D01*
X19400Y-25200D02*
X37700Y-25200D01*
X14400Y-25200D02*
X18600Y-25200D01*
X12700Y-25200D02*
X13600Y-25200D01*
X10700Y-25200D02*
X11300Y-25200D01*
X08500Y-25200D02*
X09300Y-25200D01*
X06300Y-25200D02*
X06900Y-25200D01*
X19300Y-25100D02*
X37700Y-25100D01*
X14300Y-25100D02*
X18700Y-25100D01*
X12700Y-25100D02*
X13700Y-25100D01*
X10700Y-25100D02*
X11300Y-25100D01*
X08500Y-25100D02*
X09300Y-25100D01*
X06300Y-25100D02*
X06900Y-25100D01*
X17800Y-25000D02*
X37700Y-25000D01*
X17100Y-25000D02*
X17200Y-25000D01*
X15800Y-25000D02*
X15900Y-25000D01*
X12700Y-25000D02*
X15200Y-25000D01*
X10700Y-25000D02*
X11300Y-25000D01*
X08500Y-25000D02*
X09300Y-25000D01*
X06300Y-25000D02*
X06900Y-25000D01*
X19500Y-24900D02*
X37700Y-24900D01*
X17900Y-24900D02*
X18500Y-24900D01*
X14500Y-24900D02*
X15100Y-24900D01*
X12700Y-24900D02*
X13500Y-24900D01*
X10700Y-24900D02*
X11300Y-24900D01*
X08500Y-24900D02*
X09300Y-24900D01*
X06300Y-24900D02*
X06900Y-24900D01*
X26200Y-24800D02*
X37700Y-24800D01*
X10700Y-24800D02*
X11300Y-24800D01*
X08500Y-24800D02*
X09300Y-24800D01*
X06300Y-24800D02*
X06900Y-24800D01*
X26300Y-24700D02*
X37700Y-24700D01*
X10700Y-24700D02*
X11300Y-24700D01*
X08500Y-24700D02*
X09300Y-24700D01*
X06300Y-24700D02*
X06900Y-24700D01*
X26400Y-24600D02*
X37700Y-24600D01*
X10700Y-24600D02*
X11300Y-24600D01*
X08500Y-24600D02*
X09200Y-24600D01*
X06300Y-24600D02*
X06900Y-24600D01*
X26500Y-24500D02*
X37800Y-24500D01*
X10700Y-24500D02*
X11300Y-24500D01*
X08500Y-24500D02*
X09100Y-24500D01*
X06300Y-24500D02*
X06900Y-24500D01*
X26600Y-24400D02*
X37800Y-24400D01*
X10700Y-24400D02*
X11300Y-24400D01*
X08500Y-24400D02*
X09000Y-24400D01*
X06300Y-24400D02*
X06900Y-24400D01*
X39500Y-24300D02*
X39600Y-24300D01*
X26700Y-24300D02*
X37900Y-24300D01*
X10700Y-24300D02*
X11300Y-24300D01*
X08500Y-24300D02*
X08900Y-24300D01*
X06300Y-24300D02*
X06900Y-24300D01*
X39400Y-24200D02*
X39600Y-24200D01*
X26700Y-24200D02*
X38000Y-24200D01*
X10700Y-24200D02*
X11300Y-24200D01*
X08500Y-24200D02*
X08800Y-24200D01*
X06300Y-24200D02*
X06900Y-24200D01*
X39300Y-24100D02*
X39600Y-24100D01*
X30600Y-24100D02*
X38100Y-24100D01*
X26700Y-24100D02*
X30000Y-24100D01*
X25200Y-24100D02*
X25700Y-24100D01*
X20900Y-24100D02*
X24100Y-24100D01*
X19500Y-24100D02*
X19800Y-24100D01*
X17900Y-24100D02*
X18500Y-24100D01*
X14500Y-24100D02*
X15100Y-24100D01*
X12700Y-24100D02*
X13500Y-24100D01*
X10700Y-24100D02*
X11300Y-24100D01*
X08100Y-24100D02*
X08800Y-24100D01*
X06300Y-24100D02*
X07300Y-24100D01*
X39100Y-24000D02*
X39600Y-24000D01*
X30700Y-24000D02*
X38300Y-24000D01*
X26700Y-24000D02*
X29900Y-24000D01*
X25200Y-24000D02*
X25800Y-24000D01*
X20900Y-24000D02*
X24200Y-24000D01*
X17800Y-24000D02*
X19900Y-24000D01*
X17100Y-24000D02*
X17200Y-24000D01*
X15800Y-24000D02*
X15900Y-24000D01*
X12700Y-24000D02*
X15200Y-24000D01*
X10700Y-24000D02*
X11300Y-24000D01*
X08100Y-24000D02*
X08800Y-24000D01*
X06300Y-24000D02*
X07300Y-24000D01*
X30800Y-23900D02*
X39600Y-23900D01*
X26800Y-23900D02*
X29800Y-23900D01*
X25200Y-23900D02*
X25800Y-23900D01*
X20900Y-23900D02*
X24300Y-23900D01*
X12700Y-23900D02*
X20000Y-23900D01*
X10700Y-23900D02*
X11300Y-23900D01*
X08100Y-23900D02*
X08800Y-23900D01*
X06300Y-23900D02*
X07300Y-23900D01*
X30800Y-23800D02*
X39600Y-23800D01*
X26800Y-23800D02*
X29800Y-23800D01*
X25200Y-23800D02*
X25800Y-23800D01*
X20900Y-23800D02*
X24300Y-23800D01*
X09900Y-23800D02*
X20100Y-23800D01*
X08100Y-23800D02*
X08500Y-23800D01*
X06300Y-23800D02*
X06500Y-23800D01*
X30800Y-23700D02*
X39600Y-23700D01*
X26800Y-23700D02*
X29800Y-23700D01*
X25200Y-23700D02*
X25800Y-23700D01*
X20900Y-23700D02*
X24300Y-23700D01*
X09900Y-23700D02*
X20100Y-23700D01*
X08100Y-23700D02*
X08500Y-23700D01*
X06300Y-23700D02*
X06500Y-23700D01*
X30800Y-23600D02*
X39600Y-23600D01*
X26800Y-23600D02*
X29800Y-23600D01*
X25200Y-23600D02*
X25800Y-23600D01*
X20900Y-23600D02*
X24300Y-23600D01*
X09900Y-23600D02*
X20100Y-23600D01*
X08100Y-23600D02*
X08500Y-23600D01*
X06300Y-23600D02*
X06500Y-23600D01*
X30800Y-23500D02*
X39600Y-23500D01*
X26800Y-23500D02*
X29800Y-23500D01*
X25200Y-23500D02*
X25800Y-23500D01*
X20900Y-23500D02*
X24300Y-23500D01*
X09900Y-23500D02*
X20100Y-23500D01*
X08100Y-23500D02*
X08500Y-23500D01*
X06300Y-23500D02*
X06500Y-23500D01*
X30700Y-23400D02*
X39600Y-23400D01*
X26700Y-23400D02*
X29900Y-23400D01*
X25200Y-23400D02*
X25900Y-23400D01*
X20900Y-23400D02*
X24300Y-23400D01*
X09900Y-23400D02*
X20100Y-23400D01*
X08100Y-23400D02*
X08500Y-23400D01*
X06300Y-23400D02*
X06500Y-23400D01*
X30600Y-23300D02*
X39600Y-23300D01*
X26600Y-23300D02*
X30000Y-23300D01*
X25200Y-23300D02*
X26000Y-23300D01*
X20900Y-23300D02*
X24300Y-23300D01*
X09900Y-23300D02*
X20100Y-23300D01*
X08100Y-23300D02*
X08500Y-23300D01*
X06300Y-23300D02*
X06500Y-23300D01*
X30600Y-23200D02*
X39600Y-23200D01*
X25200Y-23200D02*
X30000Y-23200D01*
X20900Y-23200D02*
X24300Y-23200D01*
X09900Y-23200D02*
X20100Y-23200D01*
X08100Y-23200D02*
X08500Y-23200D01*
X06300Y-23200D02*
X06500Y-23200D01*
X30600Y-23100D02*
X39600Y-23100D01*
X25200Y-23100D02*
X30000Y-23100D01*
X20900Y-23100D02*
X24300Y-23100D01*
X09900Y-23100D02*
X20100Y-23100D01*
X08000Y-23100D02*
X08500Y-23100D01*
X06300Y-23100D02*
X06500Y-23100D01*
X30700Y-23000D02*
X39600Y-23000D01*
X25200Y-23000D02*
X29900Y-23000D01*
X20900Y-23000D02*
X24300Y-23000D01*
X09900Y-23000D02*
X20100Y-23000D01*
X07900Y-23000D02*
X08500Y-23000D01*
X06300Y-23000D02*
X06500Y-23000D01*
X30800Y-22900D02*
X39600Y-22900D01*
X25200Y-22900D02*
X29800Y-22900D01*
X20900Y-22900D02*
X24300Y-22900D01*
X09900Y-22900D02*
X20100Y-22900D01*
X07900Y-22900D02*
X08500Y-22900D01*
X06300Y-22900D02*
X06500Y-22900D01*
X30800Y-22800D02*
X39600Y-22800D01*
X25200Y-22800D02*
X29800Y-22800D01*
X20900Y-22800D02*
X24300Y-22800D01*
X09900Y-22800D02*
X20100Y-22800D01*
X07900Y-22800D02*
X08500Y-22800D01*
X06300Y-22800D02*
X06500Y-22800D01*
X30800Y-22700D02*
X39600Y-22700D01*
X25200Y-22700D02*
X29800Y-22700D01*
X20900Y-22700D02*
X24300Y-22700D01*
X09900Y-22700D02*
X20100Y-22700D01*
X07900Y-22700D02*
X08500Y-22700D01*
X06300Y-22700D02*
X06500Y-22700D01*
X30900Y-22600D02*
X39600Y-22600D01*
X25200Y-22600D02*
X29800Y-22600D01*
X20900Y-22600D02*
X24300Y-22600D01*
X09900Y-22600D02*
X20100Y-22600D01*
X07900Y-22600D02*
X08500Y-22600D01*
X06300Y-22600D02*
X06500Y-22600D01*
X36200Y-22500D02*
X39600Y-22500D01*
X31000Y-22500D02*
X35600Y-22500D01*
X25200Y-22500D02*
X29800Y-22500D01*
X21000Y-22500D02*
X24300Y-22500D01*
X09900Y-22500D02*
X20000Y-22500D01*
X07900Y-22500D02*
X08500Y-22500D01*
X06300Y-22500D02*
X06500Y-22500D01*
X36400Y-22400D02*
X39600Y-22400D01*
X31100Y-22400D02*
X35400Y-22400D01*
X25300Y-22400D02*
X29900Y-22400D01*
X21000Y-22400D02*
X24200Y-22400D01*
X09900Y-22400D02*
X20000Y-22400D01*
X07900Y-22400D02*
X08500Y-22400D01*
X06300Y-22400D02*
X06500Y-22400D01*
X36500Y-22300D02*
X39600Y-22300D01*
X31200Y-22300D02*
X35300Y-22300D01*
X25300Y-22300D02*
X30000Y-22300D01*
X21000Y-22300D02*
X24200Y-22300D01*
X09900Y-22300D02*
X20000Y-22300D01*
X07900Y-22300D02*
X08500Y-22300D01*
X06300Y-22300D02*
X06500Y-22300D01*
X36500Y-22200D02*
X39600Y-22200D01*
X31300Y-22200D02*
X35300Y-22200D01*
X25300Y-22200D02*
X30300Y-22200D01*
X21000Y-22200D02*
X24200Y-22200D01*
X09900Y-22200D02*
X20000Y-22200D01*
X07900Y-22200D02*
X08500Y-22200D01*
X06300Y-22200D02*
X06500Y-22200D01*
X37200Y-22100D02*
X39600Y-22100D01*
X25300Y-22100D02*
X29400Y-22100D01*
X21000Y-22100D02*
X24200Y-22100D01*
X09900Y-22100D02*
X20000Y-22100D01*
X07900Y-22100D02*
X08500Y-22100D01*
X06300Y-22100D02*
X06500Y-22100D01*
X37300Y-22000D02*
X39600Y-22000D01*
X25200Y-22000D02*
X29300Y-22000D01*
X21000Y-22000D02*
X24300Y-22000D01*
X09900Y-22000D02*
X20000Y-22000D01*
X07900Y-22000D02*
X08500Y-22000D01*
X06300Y-22000D02*
X06500Y-22000D01*
X37400Y-21900D02*
X39600Y-21900D01*
X25200Y-21900D02*
X29000Y-21900D01*
X20900Y-21900D02*
X24300Y-21900D01*
X06300Y-21900D02*
X20100Y-21900D01*
X37500Y-21800D02*
X39600Y-21800D01*
X25000Y-21800D02*
X28900Y-21800D01*
X20800Y-21800D02*
X24500Y-21800D01*
X06300Y-21800D02*
X20200Y-21800D01*
X37600Y-21700D02*
X39600Y-21700D01*
X06300Y-21700D02*
X28800Y-21700D01*
X37700Y-21600D02*
X39600Y-21600D01*
X36500Y-21600D02*
X36700Y-21600D01*
X29900Y-21600D02*
X35300Y-21600D01*
X06300Y-21600D02*
X28800Y-21600D01*
X38600Y-21500D02*
X39600Y-21500D01*
X36500Y-21500D02*
X36800Y-21500D01*
X33200Y-21500D02*
X35300Y-21500D01*
X29800Y-21500D02*
X32600Y-21500D01*
X06300Y-21500D02*
X28800Y-21500D01*
X38600Y-21400D02*
X39600Y-21400D01*
X36400Y-21400D02*
X36900Y-21400D01*
X33400Y-21400D02*
X35400Y-21400D01*
X29800Y-21400D02*
X32400Y-21400D01*
X06300Y-21400D02*
X28800Y-21400D01*
X38600Y-21300D02*
X39600Y-21300D01*
X36200Y-21300D02*
X37000Y-21300D01*
X33500Y-21300D02*
X35600Y-21300D01*
X29800Y-21300D02*
X32300Y-21300D01*
X06300Y-21300D02*
X28800Y-21300D01*
X38600Y-21200D02*
X39600Y-21200D01*
X33500Y-21200D02*
X37100Y-21200D01*
X29700Y-21200D02*
X32300Y-21200D01*
X06300Y-21200D02*
X28900Y-21200D01*
X38600Y-21100D02*
X39600Y-21100D01*
X33600Y-21100D02*
X37200Y-21100D01*
X29600Y-21100D02*
X31500Y-21100D01*
X06300Y-21100D02*
X29000Y-21100D01*
X38600Y-21000D02*
X39600Y-21000D01*
X33600Y-21000D02*
X37200Y-21000D01*
X06300Y-21000D02*
X31400Y-21000D01*
X38600Y-20900D02*
X39600Y-20900D01*
X33600Y-20900D02*
X37200Y-20900D01*
X06300Y-20900D02*
X31300Y-20900D01*
X38600Y-20800D02*
X39600Y-20800D01*
X33600Y-20800D02*
X37200Y-20800D01*
X06300Y-20800D02*
X31200Y-20800D01*
X38600Y-20700D02*
X39600Y-20700D01*
X33600Y-20700D02*
X37200Y-20700D01*
X06300Y-20700D02*
X31100Y-20700D01*
X38600Y-20600D02*
X39600Y-20600D01*
X33500Y-20600D02*
X37200Y-20600D01*
X32000Y-20600D02*
X32300Y-20600D01*
X06300Y-20600D02*
X31000Y-20600D01*
X38600Y-20500D02*
X39600Y-20500D01*
X33500Y-20500D02*
X37200Y-20500D01*
X31900Y-20500D02*
X32300Y-20500D01*
X06300Y-20500D02*
X30900Y-20500D01*
X38600Y-20400D02*
X39600Y-20400D01*
X33400Y-20400D02*
X37200Y-20400D01*
X31800Y-20400D02*
X32400Y-20400D01*
X06300Y-20400D02*
X30900Y-20400D01*
X38600Y-20300D02*
X39600Y-20300D01*
X33200Y-20300D02*
X37200Y-20300D01*
X31700Y-20300D02*
X32600Y-20300D01*
X06300Y-20300D02*
X30900Y-20300D01*
X31600Y-20200D02*
X39600Y-20200D01*
X06300Y-20200D02*
X30900Y-20200D01*
X36200Y-20100D02*
X39600Y-20100D01*
X31500Y-20100D02*
X35600Y-20100D01*
X06300Y-20100D02*
X30900Y-20100D01*
X36400Y-20000D02*
X39600Y-20000D01*
X31500Y-20000D02*
X35400Y-20000D01*
X29000Y-20000D02*
X30900Y-20000D01*
X26000Y-20000D02*
X27600Y-20000D01*
X06300Y-20000D02*
X24600Y-20000D01*
X36500Y-19900D02*
X39600Y-19900D01*
X31500Y-19900D02*
X35300Y-19900D01*
X29600Y-19900D02*
X30900Y-19900D01*
X26000Y-19900D02*
X27600Y-19900D01*
X18500Y-19900D02*
X24600Y-19900D01*
X06300Y-19900D02*
X14500Y-19900D01*
X36500Y-19800D02*
X39600Y-19800D01*
X31500Y-19800D02*
X35300Y-19800D01*
X29700Y-19800D02*
X30900Y-19800D01*
X26000Y-19800D02*
X27600Y-19800D01*
X18500Y-19800D02*
X24600Y-19800D01*
X06300Y-19800D02*
X14500Y-19800D01*
X36600Y-19700D02*
X39600Y-19700D01*
X31500Y-19700D02*
X33600Y-19700D01*
X29800Y-19700D02*
X30900Y-19700D01*
X26000Y-19700D02*
X27600Y-19700D01*
X18500Y-19700D02*
X24600Y-19700D01*
X06300Y-19700D02*
X14500Y-19700D01*
X36600Y-19600D02*
X39600Y-19600D01*
X31500Y-19600D02*
X33500Y-19600D01*
X29800Y-19600D02*
X30900Y-19600D01*
X26000Y-19600D02*
X27600Y-19600D01*
X18500Y-19600D02*
X24600Y-19600D01*
X06300Y-19600D02*
X14500Y-19600D01*
X36600Y-19500D02*
X39600Y-19500D01*
X31500Y-19500D02*
X33400Y-19500D01*
X29800Y-19500D02*
X30900Y-19500D01*
X26000Y-19500D02*
X27600Y-19500D01*
X18500Y-19500D02*
X24600Y-19500D01*
X06300Y-19500D02*
X14500Y-19500D01*
X36600Y-19400D02*
X39600Y-19400D01*
X31500Y-19400D02*
X33300Y-19400D01*
X29800Y-19400D02*
X30900Y-19400D01*
X26000Y-19400D02*
X27600Y-19400D01*
X18500Y-19400D02*
X24600Y-19400D01*
X06300Y-19400D02*
X14500Y-19400D01*
X36600Y-19300D02*
X39600Y-19300D01*
X31500Y-19300D02*
X33200Y-19300D01*
X29800Y-19300D02*
X30900Y-19300D01*
X26000Y-19300D02*
X27600Y-19300D01*
X18500Y-19300D02*
X24600Y-19300D01*
X06300Y-19300D02*
X14500Y-19300D01*
X36500Y-19200D02*
X39600Y-19200D01*
X34100Y-19200D02*
X35300Y-19200D01*
X31500Y-19200D02*
X33100Y-19200D01*
X29700Y-19200D02*
X30900Y-19200D01*
X26000Y-19200D02*
X27600Y-19200D01*
X18500Y-19200D02*
X24600Y-19200D01*
X06300Y-19200D02*
X14500Y-19200D01*
X38600Y-19100D02*
X39600Y-19100D01*
X36500Y-19100D02*
X37200Y-19100D01*
X34000Y-19100D02*
X35300Y-19100D01*
X31500Y-19100D02*
X32600Y-19100D01*
X30600Y-19100D02*
X30900Y-19100D01*
X29600Y-19100D02*
X30000Y-19100D01*
X26000Y-19100D02*
X27600Y-19100D01*
X18500Y-19100D02*
X24600Y-19100D01*
X06300Y-19100D02*
X14500Y-19100D01*
X38600Y-19000D02*
X39600Y-19000D01*
X36400Y-19000D02*
X37200Y-19000D01*
X33900Y-19000D02*
X35400Y-19000D01*
X31500Y-19000D02*
X32400Y-19000D01*
X30700Y-19000D02*
X30900Y-19000D01*
X29000Y-19000D02*
X29900Y-19000D01*
X26000Y-19000D02*
X27600Y-19000D01*
X18500Y-19000D02*
X24600Y-19000D01*
X06300Y-19000D02*
X14500Y-19000D01*
X38600Y-18900D02*
X39600Y-18900D01*
X36200Y-18900D02*
X37200Y-18900D01*
X33800Y-18900D02*
X35600Y-18900D01*
X31500Y-18900D02*
X32300Y-18900D01*
X30800Y-18900D02*
X30900Y-18900D01*
X29000Y-18900D02*
X29800Y-18900D01*
X26000Y-18900D02*
X27600Y-18900D01*
X18500Y-18900D02*
X24600Y-18900D01*
X06300Y-18900D02*
X14500Y-18900D01*
X38600Y-18800D02*
X39600Y-18800D01*
X33700Y-18800D02*
X37200Y-18800D01*
X31500Y-18800D02*
X32300Y-18800D01*
X30800Y-18800D02*
X30900Y-18800D01*
X29000Y-18800D02*
X29800Y-18800D01*
X26000Y-18800D02*
X27300Y-18800D01*
X18500Y-18800D02*
X24600Y-18800D01*
X06300Y-18800D02*
X14500Y-18800D01*
X38600Y-18700D02*
X39600Y-18700D01*
X33600Y-18700D02*
X37200Y-18700D01*
X31500Y-18700D02*
X31700Y-18700D01*
X30800Y-18700D02*
X30900Y-18700D01*
X29000Y-18700D02*
X29800Y-18700D01*
X26000Y-18700D02*
X27200Y-18700D01*
X18500Y-18700D02*
X24600Y-18700D01*
X06300Y-18700D02*
X14500Y-18700D01*
X38600Y-18600D02*
X39600Y-18600D01*
X33600Y-18600D02*
X37200Y-18600D01*
X31500Y-18600D02*
X31600Y-18600D01*
X30800Y-18600D02*
X30900Y-18600D01*
X29000Y-18600D02*
X29800Y-18600D01*
X26000Y-18600D02*
X27100Y-18600D01*
X18500Y-18600D02*
X24600Y-18600D01*
X06300Y-18600D02*
X14500Y-18600D01*
X38600Y-18500D02*
X39600Y-18500D01*
X33600Y-18500D02*
X37200Y-18500D01*
X30800Y-18500D02*
X30900Y-18500D01*
X29000Y-18500D02*
X29800Y-18500D01*
X26000Y-18500D02*
X27000Y-18500D01*
X18500Y-18500D02*
X24600Y-18500D01*
X06300Y-18500D02*
X14500Y-18500D01*
X38600Y-18400D02*
X39600Y-18400D01*
X33600Y-18400D02*
X37200Y-18400D01*
X30700Y-18400D02*
X30900Y-18400D01*
X29000Y-18400D02*
X29900Y-18400D01*
X26000Y-18400D02*
X26900Y-18400D01*
X18500Y-18400D02*
X24600Y-18400D01*
X06300Y-18400D02*
X14500Y-18400D01*
X38600Y-18300D02*
X39600Y-18300D01*
X33600Y-18300D02*
X37200Y-18300D01*
X30600Y-18300D02*
X30900Y-18300D01*
X29000Y-18300D02*
X30000Y-18300D01*
X26000Y-18300D02*
X26800Y-18300D01*
X18500Y-18300D02*
X24600Y-18300D01*
X06300Y-18300D02*
X14500Y-18300D01*
X38600Y-18200D02*
X39600Y-18200D01*
X33500Y-18200D02*
X37200Y-18200D01*
X32200Y-18200D02*
X32300Y-18200D01*
X29000Y-18200D02*
X30900Y-18200D01*
X26000Y-18200D02*
X26700Y-18200D01*
X18500Y-18200D02*
X24600Y-18200D01*
X06300Y-18200D02*
X14500Y-18200D01*
X38600Y-18100D02*
X39600Y-18100D01*
X33500Y-18100D02*
X37200Y-18100D01*
X32100Y-18100D02*
X32300Y-18100D01*
X29000Y-18100D02*
X30800Y-18100D01*
X26000Y-18100D02*
X26600Y-18100D01*
X18500Y-18100D02*
X24600Y-18100D01*
X06300Y-18100D02*
X14500Y-18100D01*
X38600Y-18000D02*
X39600Y-18000D01*
X33400Y-18000D02*
X37200Y-18000D01*
X32000Y-18000D02*
X32400Y-18000D01*
X29000Y-18000D02*
X30700Y-18000D01*
X26000Y-18000D02*
X26500Y-18000D01*
X18500Y-18000D02*
X24600Y-18000D01*
X06300Y-18000D02*
X14500Y-18000D01*
X38600Y-17900D02*
X39600Y-17900D01*
X33200Y-17900D02*
X37200Y-17900D01*
X32000Y-17900D02*
X32600Y-17900D01*
X29000Y-17900D02*
X30600Y-17900D01*
X26000Y-17900D02*
X26500Y-17900D01*
X24400Y-17900D02*
X24600Y-17900D01*
X18500Y-17900D02*
X23800Y-17900D01*
X06300Y-17900D02*
X14500Y-17900D01*
X32000Y-17800D02*
X39600Y-17800D01*
X29000Y-17800D02*
X30500Y-17800D01*
X27500Y-17800D02*
X27600Y-17800D01*
X26000Y-17800D02*
X26500Y-17800D01*
X24500Y-17800D02*
X24600Y-17800D01*
X18500Y-17800D02*
X23700Y-17800D01*
X06300Y-17800D02*
X14500Y-17800D01*
X36200Y-17700D02*
X39600Y-17700D01*
X32000Y-17700D02*
X35600Y-17700D01*
X27400Y-17700D02*
X27600Y-17700D01*
X26000Y-17700D02*
X26500Y-17700D01*
X18500Y-17700D02*
X23600Y-17700D01*
X06300Y-17700D02*
X14500Y-17700D01*
X36400Y-17600D02*
X39600Y-17600D01*
X32000Y-17600D02*
X35400Y-17600D01*
X27300Y-17600D02*
X27600Y-17600D01*
X26000Y-17600D02*
X26500Y-17600D01*
X18500Y-17600D02*
X23600Y-17600D01*
X06300Y-17600D02*
X14500Y-17600D01*
X36500Y-17500D02*
X39600Y-17500D01*
X32000Y-17500D02*
X35300Y-17500D01*
X27300Y-17500D02*
X27600Y-17500D01*
X26000Y-17500D02*
X26500Y-17500D01*
X18500Y-17500D02*
X23600Y-17500D01*
X06300Y-17500D02*
X14500Y-17500D01*
X36500Y-17400D02*
X39600Y-17400D01*
X32000Y-17400D02*
X35300Y-17400D01*
X27300Y-17400D02*
X27600Y-17400D01*
X26000Y-17400D02*
X26500Y-17400D01*
X18500Y-17400D02*
X23600Y-17400D01*
X06300Y-17400D02*
X14500Y-17400D01*
X36600Y-17300D02*
X39600Y-17300D01*
X32000Y-17300D02*
X33600Y-17300D01*
X27300Y-17300D02*
X27600Y-17300D01*
X26000Y-17300D02*
X26500Y-17300D01*
X18500Y-17300D02*
X23600Y-17300D01*
X06300Y-17300D02*
X14500Y-17300D01*
X36600Y-17200D02*
X39600Y-17200D01*
X32000Y-17200D02*
X33500Y-17200D01*
X27300Y-17200D02*
X27600Y-17200D01*
X26000Y-17200D02*
X26500Y-17200D01*
X24500Y-17200D02*
X24600Y-17200D01*
X18500Y-17200D02*
X23700Y-17200D01*
X06300Y-17200D02*
X14500Y-17200D01*
X36600Y-17100D02*
X39600Y-17100D01*
X32000Y-17100D02*
X33400Y-17100D01*
X27300Y-17100D02*
X27600Y-17100D01*
X26000Y-17100D02*
X26500Y-17100D01*
X24400Y-17100D02*
X24600Y-17100D01*
X18500Y-17100D02*
X23800Y-17100D01*
X06300Y-17100D02*
X14500Y-17100D01*
X36600Y-17000D02*
X39600Y-17000D01*
X32000Y-17000D02*
X33300Y-17000D01*
X27300Y-17000D02*
X27600Y-17000D01*
X26000Y-17000D02*
X26500Y-17000D01*
X18500Y-17000D02*
X24600Y-17000D01*
X06300Y-17000D02*
X14500Y-17000D01*
X36600Y-16900D02*
X39600Y-16900D01*
X32000Y-16900D02*
X33200Y-16900D01*
X27300Y-16900D02*
X27600Y-16900D01*
X26000Y-16900D02*
X26500Y-16900D01*
X24400Y-16900D02*
X24600Y-16900D01*
X18500Y-16900D02*
X23800Y-16900D01*
X06300Y-16900D02*
X14500Y-16900D01*
X36500Y-16800D02*
X39600Y-16800D01*
X34100Y-16800D02*
X35300Y-16800D01*
X32000Y-16800D02*
X33100Y-16800D01*
X27300Y-16800D02*
X27600Y-16800D01*
X26000Y-16800D02*
X26500Y-16800D01*
X24500Y-16800D02*
X24600Y-16800D01*
X18500Y-16800D02*
X23700Y-16800D01*
X06300Y-16800D02*
X14500Y-16800D01*
X38600Y-16700D02*
X39600Y-16700D01*
X36500Y-16700D02*
X37200Y-16700D01*
X34000Y-16700D02*
X35300Y-16700D01*
X32000Y-16700D02*
X32600Y-16700D01*
X27300Y-16700D02*
X27600Y-16700D01*
X26000Y-16700D02*
X26500Y-16700D01*
X18500Y-16700D02*
X23600Y-16700D01*
X06300Y-16700D02*
X14500Y-16700D01*
X38600Y-16600D02*
X39600Y-16600D01*
X36400Y-16600D02*
X37200Y-16600D01*
X33900Y-16600D02*
X35400Y-16600D01*
X32000Y-16600D02*
X32400Y-16600D01*
X27300Y-16600D02*
X27600Y-16600D01*
X26000Y-16600D02*
X26500Y-16600D01*
X18500Y-16600D02*
X23600Y-16600D01*
X06300Y-16600D02*
X14500Y-16600D01*
X38600Y-16500D02*
X39600Y-16500D01*
X36200Y-16500D02*
X37200Y-16500D01*
X33800Y-16500D02*
X35600Y-16500D01*
X32000Y-16500D02*
X32300Y-16500D01*
X27300Y-16500D02*
X27600Y-16500D01*
X26000Y-16500D02*
X26500Y-16500D01*
X18500Y-16500D02*
X23600Y-16500D01*
X06300Y-16500D02*
X14500Y-16500D01*
X38600Y-16400D02*
X39600Y-16400D01*
X33700Y-16400D02*
X37200Y-16400D01*
X32000Y-16400D02*
X32300Y-16400D01*
X27300Y-16400D02*
X27600Y-16400D01*
X26000Y-16400D02*
X26500Y-16400D01*
X18500Y-16400D02*
X23600Y-16400D01*
X06300Y-16400D02*
X14500Y-16400D01*
X38600Y-16300D02*
X39600Y-16300D01*
X33600Y-16300D02*
X37200Y-16300D01*
X27300Y-16300D02*
X27600Y-16300D01*
X26000Y-16300D02*
X26500Y-16300D01*
X18500Y-16300D02*
X23600Y-16300D01*
X06300Y-16300D02*
X14500Y-16300D01*
X38600Y-16200D02*
X39600Y-16200D01*
X33600Y-16200D02*
X37200Y-16200D01*
X27300Y-16200D02*
X27600Y-16200D01*
X26000Y-16200D02*
X26500Y-16200D01*
X24500Y-16200D02*
X24600Y-16200D01*
X18500Y-16200D02*
X23700Y-16200D01*
X06300Y-16200D02*
X14500Y-16200D01*
X38600Y-16100D02*
X39600Y-16100D01*
X33600Y-16100D02*
X37200Y-16100D01*
X27300Y-16100D02*
X27600Y-16100D01*
X26000Y-16100D02*
X26500Y-16100D01*
X24400Y-16100D02*
X24600Y-16100D01*
X18500Y-16100D02*
X23800Y-16100D01*
X06300Y-16100D02*
X14500Y-16100D01*
X38600Y-16000D02*
X39600Y-16000D01*
X33600Y-16000D02*
X37200Y-16000D01*
X27300Y-16000D02*
X27600Y-16000D01*
X26000Y-16000D02*
X26500Y-16000D01*
X06300Y-16000D02*
X24600Y-16000D01*
X38600Y-15900D02*
X39600Y-15900D01*
X33600Y-15900D02*
X37200Y-15900D01*
X27300Y-15900D02*
X27600Y-15900D01*
X26000Y-15900D02*
X26500Y-15900D01*
X24400Y-15900D02*
X24600Y-15900D01*
X06300Y-15900D02*
X23800Y-15900D01*
X38600Y-15800D02*
X39600Y-15800D01*
X33500Y-15800D02*
X37200Y-15800D01*
X32200Y-15800D02*
X32300Y-15800D01*
X27300Y-15800D02*
X27600Y-15800D01*
X26000Y-15800D02*
X26500Y-15800D01*
X24500Y-15800D02*
X24600Y-15800D01*
X06300Y-15800D02*
X23700Y-15800D01*
X38600Y-15700D02*
X39600Y-15700D01*
X33500Y-15700D02*
X37200Y-15700D01*
X32100Y-15700D02*
X32300Y-15700D01*
X27300Y-15700D02*
X27600Y-15700D01*
X26000Y-15700D02*
X26500Y-15700D01*
X06300Y-15700D02*
X23600Y-15700D01*
X38600Y-15600D02*
X39600Y-15600D01*
X33400Y-15600D02*
X37200Y-15600D01*
X32000Y-15600D02*
X32400Y-15600D01*
X27300Y-15600D02*
X27600Y-15600D01*
X26000Y-15600D02*
X26500Y-15600D01*
X06300Y-15600D02*
X23600Y-15600D01*
X38600Y-15500D02*
X39600Y-15500D01*
X33200Y-15500D02*
X37200Y-15500D01*
X31900Y-15500D02*
X32600Y-15500D01*
X27300Y-15500D02*
X27600Y-15500D01*
X26000Y-15500D02*
X26500Y-15500D01*
X06300Y-15500D02*
X23600Y-15500D01*
X31900Y-15400D02*
X39600Y-15400D01*
X27300Y-15400D02*
X27600Y-15400D01*
X26000Y-15400D02*
X26500Y-15400D01*
X06300Y-15400D02*
X23600Y-15400D01*
X31900Y-15300D02*
X39600Y-15300D01*
X27300Y-15300D02*
X27600Y-15300D01*
X26000Y-15300D02*
X26500Y-15300D01*
X06300Y-15300D02*
X23600Y-15300D01*
X31900Y-15200D02*
X39600Y-15200D01*
X27300Y-15200D02*
X27600Y-15200D01*
X26000Y-15200D02*
X26500Y-15200D01*
X24500Y-15200D02*
X24600Y-15200D01*
X06300Y-15200D02*
X23700Y-15200D01*
X31900Y-15100D02*
X39600Y-15100D01*
X27300Y-15100D02*
X27600Y-15100D01*
X26000Y-15100D02*
X26500Y-15100D01*
X24400Y-15100D02*
X24600Y-15100D01*
X06300Y-15100D02*
X23800Y-15100D01*
X31900Y-15000D02*
X39600Y-15000D01*
X27300Y-15000D02*
X27600Y-15000D01*
X26000Y-15000D02*
X26500Y-15000D01*
X06300Y-15000D02*
X24600Y-15000D01*
X31900Y-14900D02*
X39600Y-14900D01*
X27300Y-14900D02*
X27600Y-14900D01*
X26000Y-14900D02*
X26500Y-14900D01*
X06300Y-14900D02*
X24600Y-14900D01*
X39100Y-14800D02*
X39600Y-14800D01*
X31900Y-14800D02*
X38300Y-14800D01*
X27300Y-14800D02*
X27600Y-14800D01*
X26000Y-14800D02*
X26500Y-14800D01*
X06300Y-14800D02*
X24600Y-14800D01*
X39300Y-14700D02*
X39600Y-14700D01*
X31900Y-14700D02*
X38100Y-14700D01*
X27300Y-14700D02*
X27600Y-14700D01*
X26000Y-14700D02*
X26500Y-14700D01*
X06300Y-14700D02*
X24600Y-14700D01*
X39400Y-14600D02*
X39600Y-14600D01*
X31900Y-14600D02*
X38000Y-14600D01*
X27300Y-14600D02*
X27600Y-14600D01*
X26000Y-14600D02*
X26500Y-14600D01*
X06300Y-14600D02*
X24600Y-14600D01*
X39500Y-14500D02*
X39600Y-14500D01*
X31900Y-14500D02*
X37900Y-14500D01*
X27300Y-14500D02*
X27600Y-14500D01*
X26000Y-14500D02*
X26500Y-14500D01*
X06300Y-14500D02*
X24600Y-14500D01*
X31900Y-14400D02*
X37800Y-14400D01*
X27300Y-14400D02*
X27600Y-14400D01*
X26000Y-14400D02*
X26500Y-14400D01*
X06300Y-14400D02*
X24600Y-14400D01*
X31900Y-14300D02*
X37800Y-14300D01*
X27300Y-14300D02*
X27600Y-14300D01*
X26000Y-14300D02*
X26500Y-14300D01*
X06300Y-14300D02*
X24600Y-14300D01*
X31900Y-14200D02*
X37700Y-14200D01*
X27300Y-14200D02*
X27600Y-14200D01*
X26000Y-14200D02*
X26500Y-14200D01*
X06300Y-14200D02*
X24600Y-14200D01*
X31900Y-14100D02*
X37700Y-14100D01*
X27300Y-14100D02*
X27600Y-14100D01*
X26000Y-14100D02*
X26500Y-14100D01*
X06300Y-14100D02*
X24600Y-14100D01*
X31900Y-14000D02*
X37700Y-14000D01*
X27300Y-14000D02*
X27600Y-14000D01*
X26000Y-14000D02*
X26500Y-14000D01*
X06300Y-14000D02*
X24600Y-14000D01*
X31900Y-13900D02*
X37700Y-13900D01*
X27300Y-13900D02*
X27600Y-13900D01*
X26000Y-13900D02*
X26500Y-13900D01*
X24400Y-13900D02*
X24600Y-13900D01*
X06300Y-13900D02*
X23800Y-13900D01*
X31900Y-13800D02*
X37700Y-13800D01*
X27300Y-13800D02*
X27600Y-13800D01*
X26000Y-13800D02*
X26500Y-13800D01*
X24500Y-13800D02*
X24600Y-13800D01*
X06300Y-13800D02*
X23700Y-13800D01*
X31900Y-13700D02*
X37700Y-13700D01*
X27300Y-13700D02*
X27600Y-13700D01*
X26000Y-13700D02*
X26500Y-13700D01*
X06300Y-13700D02*
X23600Y-13700D01*
X31900Y-13600D02*
X37700Y-13600D01*
X27300Y-13600D02*
X27600Y-13600D01*
X26000Y-13600D02*
X26500Y-13600D01*
X06300Y-13600D02*
X23600Y-13600D01*
X31900Y-13500D02*
X37800Y-13500D01*
X27300Y-13500D02*
X27600Y-13500D01*
X26000Y-13500D02*
X26500Y-13500D01*
X06300Y-13500D02*
X23600Y-13500D01*
X31900Y-13400D02*
X37800Y-13400D01*
X27300Y-13400D02*
X27600Y-13400D01*
X26000Y-13400D02*
X26500Y-13400D01*
X06300Y-13400D02*
X23600Y-13400D01*
X39500Y-13300D02*
X39600Y-13300D01*
X31900Y-13300D02*
X37900Y-13300D01*
X27300Y-13300D02*
X27600Y-13300D01*
X26000Y-13300D02*
X26500Y-13300D01*
X06300Y-13300D02*
X23600Y-13300D01*
X39400Y-13200D02*
X39600Y-13200D01*
X31900Y-13200D02*
X38000Y-13200D01*
X27300Y-13200D02*
X27600Y-13200D01*
X26000Y-13200D02*
X26500Y-13200D01*
X24500Y-13200D02*
X24600Y-13200D01*
X06300Y-13200D02*
X23700Y-13200D01*
X39300Y-13100D02*
X39600Y-13100D01*
X31900Y-13100D02*
X38100Y-13100D01*
X27300Y-13100D02*
X27600Y-13100D01*
X26000Y-13100D02*
X26500Y-13100D01*
X24400Y-13100D02*
X24600Y-13100D01*
X06300Y-13100D02*
X23800Y-13100D01*
X39100Y-13000D02*
X39600Y-13000D01*
X31900Y-13000D02*
X38300Y-13000D01*
X27300Y-13000D02*
X27600Y-13000D01*
X26000Y-13000D02*
X26500Y-13000D01*
X06300Y-13000D02*
X24600Y-13000D01*
X31900Y-12900D02*
X39600Y-12900D01*
X27300Y-12900D02*
X27600Y-12900D01*
X26000Y-12900D02*
X26500Y-12900D01*
X06300Y-12900D02*
X24600Y-12900D01*
X31800Y-12800D02*
X39500Y-12800D01*
X27300Y-12800D02*
X27600Y-12800D01*
X26000Y-12800D02*
X26500Y-12800D01*
X06300Y-12800D02*
X24600Y-12800D01*
X31700Y-12700D02*
X39400Y-12700D01*
X27300Y-12700D02*
X27600Y-12700D01*
X26000Y-12700D02*
X26500Y-12700D01*
X06300Y-12700D02*
X24600Y-12700D01*
X31600Y-12600D02*
X39300Y-12600D01*
X27300Y-12600D02*
X27600Y-12600D01*
X26000Y-12600D02*
X26500Y-12600D01*
X11600Y-12600D02*
X24600Y-12600D01*
X09100Y-12600D02*
X10700Y-12600D01*
X06300Y-12600D02*
X08200Y-12600D01*
X31500Y-12500D02*
X39200Y-12500D01*
X27300Y-12500D02*
X27600Y-12500D01*
X26000Y-12500D02*
X26500Y-12500D01*
X11800Y-12500D02*
X24600Y-12500D01*
X09300Y-12500D02*
X10500Y-12500D01*
X06300Y-12500D02*
X08000Y-12500D01*
X31400Y-12400D02*
X39100Y-12400D01*
X27300Y-12400D02*
X27600Y-12400D01*
X26000Y-12400D02*
X26500Y-12400D01*
X11900Y-12400D02*
X24600Y-12400D01*
X09400Y-12400D02*
X10400Y-12400D01*
X06300Y-12400D02*
X07900Y-12400D01*
X31300Y-12300D02*
X39000Y-12300D01*
X27300Y-12300D02*
X27600Y-12300D01*
X26000Y-12300D02*
X26500Y-12300D01*
X12000Y-12300D02*
X24600Y-12300D01*
X09500Y-12300D02*
X10300Y-12300D01*
X06300Y-12300D02*
X07800Y-12300D01*
X29000Y-12200D02*
X38900Y-12200D01*
X27300Y-12200D02*
X27600Y-12200D01*
X26000Y-12200D02*
X26500Y-12200D01*
X12000Y-12200D02*
X24600Y-12200D01*
X09500Y-12200D02*
X10300Y-12200D01*
X06300Y-12200D02*
X07800Y-12200D01*
X29000Y-12100D02*
X38800Y-12100D01*
X27300Y-12100D02*
X27600Y-12100D01*
X26000Y-12100D02*
X26500Y-12100D01*
X12100Y-12100D02*
X24600Y-12100D01*
X09600Y-12100D02*
X10200Y-12100D01*
X06300Y-12100D02*
X07700Y-12100D01*
X29000Y-12000D02*
X38600Y-12000D01*
X27300Y-12000D02*
X27600Y-12000D01*
X26000Y-12000D02*
X26500Y-12000D01*
X12100Y-12000D02*
X24600Y-12000D01*
X09600Y-12000D02*
X10200Y-12000D01*
X06300Y-12000D02*
X07700Y-12000D01*
X27300Y-11900D02*
X38600Y-11900D01*
X12100Y-11900D02*
X26500Y-11900D01*
X09600Y-11900D02*
X10200Y-11900D01*
X06300Y-11900D02*
X07700Y-11900D01*
X27300Y-11800D02*
X38600Y-11800D01*
X12100Y-11800D02*
X26500Y-11800D01*
X09600Y-11800D02*
X10200Y-11800D01*
X06300Y-11800D02*
X07700Y-11800D01*
X27300Y-11700D02*
X38600Y-11700D01*
X12100Y-11700D02*
X26400Y-11700D01*
X09600Y-11700D02*
X10200Y-11700D01*
X06300Y-11700D02*
X07700Y-11700D01*
X27300Y-11600D02*
X38600Y-11600D01*
X12100Y-11600D02*
X26300Y-11600D01*
X09600Y-11600D02*
X10200Y-11600D01*
X06300Y-11600D02*
X07700Y-11600D01*
X27300Y-11500D02*
X38600Y-11500D01*
X12100Y-11500D02*
X26200Y-11500D01*
X09600Y-11500D02*
X10200Y-11500D01*
X06300Y-11500D02*
X07700Y-11500D01*
X27300Y-11400D02*
X38600Y-11400D01*
X12100Y-11400D02*
X26100Y-11400D01*
X09600Y-11400D02*
X10200Y-11400D01*
X06300Y-11400D02*
X07700Y-11400D01*
X27200Y-11300D02*
X38600Y-11300D01*
X12000Y-11300D02*
X26000Y-11300D01*
X06300Y-11300D02*
X07800Y-11300D01*
X27100Y-11200D02*
X38600Y-11200D01*
X12000Y-11200D02*
X25900Y-11200D01*
X06300Y-11200D02*
X07800Y-11200D01*
X27000Y-11100D02*
X38600Y-11100D01*
X11900Y-11100D02*
X25800Y-11100D01*
X06300Y-11100D02*
X07900Y-11100D01*
X26900Y-11000D02*
X38600Y-11000D01*
X11800Y-11000D02*
X25700Y-11000D01*
X06300Y-11000D02*
X08000Y-11000D01*
X26800Y-10900D02*
X38600Y-10900D01*
X11600Y-10900D02*
X25600Y-10900D01*
X06300Y-10900D02*
X08200Y-10900D01*
X26700Y-10800D02*
X38600Y-10800D01*
X06300Y-10800D02*
X09000Y-10800D01*
X26600Y-10700D02*
X38600Y-10700D01*
X06300Y-10700D02*
X09000Y-10700D01*
X26500Y-10600D02*
X38600Y-10600D01*
X06300Y-10600D02*
X09000Y-10600D01*
X26400Y-10500D02*
X38600Y-10500D01*
X06300Y-10500D02*
X09000Y-10500D01*
X26300Y-10400D02*
X38600Y-10400D01*
X06300Y-10400D02*
X09000Y-10400D01*
X26200Y-10300D02*
X38600Y-10300D01*
X06300Y-10300D02*
X09000Y-10300D01*
X26100Y-10200D02*
X38600Y-10200D01*
X06300Y-10200D02*
X09000Y-10200D01*
X11600Y-10100D02*
X38600Y-10100D01*
X06300Y-10100D02*
X08200Y-10100D01*
X11800Y-10000D02*
X38600Y-10000D01*
X06300Y-10000D02*
X08000Y-10000D01*
X11900Y-09900D02*
X38600Y-09900D01*
X06300Y-09900D02*
X07900Y-09900D01*
X12000Y-09800D02*
X38600Y-09800D01*
X06300Y-09800D02*
X07800Y-09800D01*
X37000Y-09700D02*
X38600Y-09700D01*
X36000Y-09700D02*
X36400Y-09700D01*
X35200Y-09700D02*
X35400Y-09700D01*
X12000Y-09700D02*
X34200Y-09700D01*
X06300Y-09700D02*
X07800Y-09700D01*
X37100Y-09600D02*
X38600Y-09600D01*
X36100Y-09600D02*
X36300Y-09600D01*
X35200Y-09600D02*
X35300Y-09600D01*
X12100Y-09600D02*
X34200Y-09600D01*
X09600Y-09600D02*
X10200Y-09600D01*
X06300Y-09600D02*
X07700Y-09600D01*
X37200Y-09500D02*
X38600Y-09500D01*
X12100Y-09500D02*
X34200Y-09500D01*
X09600Y-09500D02*
X10200Y-09500D01*
X06300Y-09500D02*
X07700Y-09500D01*
X37200Y-09400D02*
X38600Y-09400D01*
X12100Y-09400D02*
X34200Y-09400D01*
X09600Y-09400D02*
X10200Y-09400D01*
X06300Y-09400D02*
X07700Y-09400D01*
X37200Y-09300D02*
X38600Y-09300D01*
X12100Y-09300D02*
X34200Y-09300D01*
X09600Y-09300D02*
X10200Y-09300D01*
X06300Y-09300D02*
X07700Y-09300D01*
X37200Y-09200D02*
X38600Y-09200D01*
X12100Y-09200D02*
X34200Y-09200D01*
X09600Y-09200D02*
X10200Y-09200D01*
X06300Y-09200D02*
X07700Y-09200D01*
X37200Y-09100D02*
X38600Y-09100D01*
X12100Y-09100D02*
X34200Y-09100D01*
X09600Y-09100D02*
X10200Y-09100D01*
X06300Y-09100D02*
X07700Y-09100D01*
X37100Y-09000D02*
X38600Y-09000D01*
X36100Y-09000D02*
X36300Y-09000D01*
X35200Y-09000D02*
X35300Y-09000D01*
X12100Y-09000D02*
X34200Y-09000D01*
X09600Y-09000D02*
X10200Y-09000D01*
X06300Y-09000D02*
X07700Y-09000D01*
X37000Y-08900D02*
X38600Y-08900D01*
X36000Y-08900D02*
X36400Y-08900D01*
X35200Y-08900D02*
X35400Y-08900D01*
X12100Y-08900D02*
X34200Y-08900D01*
X09600Y-08900D02*
X10200Y-08900D01*
X06300Y-08900D02*
X07700Y-08900D01*
X37000Y-08800D02*
X38600Y-08800D01*
X35000Y-08800D02*
X36400Y-08800D01*
X19100Y-08800D02*
X34400Y-08800D01*
X12000Y-08800D02*
X18300Y-08800D01*
X09500Y-08800D02*
X10300Y-08800D01*
X06300Y-08800D02*
X07800Y-08800D01*
X37000Y-08700D02*
X38600Y-08700D01*
X35000Y-08700D02*
X36400Y-08700D01*
X19300Y-08700D02*
X34400Y-08700D01*
X12000Y-08700D02*
X18100Y-08700D01*
X09500Y-08700D02*
X10300Y-08700D01*
X06300Y-08700D02*
X07800Y-08700D01*
X38300Y-08600D02*
X38600Y-08600D01*
X29700Y-08600D02*
X30100Y-08600D01*
X19400Y-08600D02*
X19600Y-08600D01*
X11900Y-08600D02*
X18000Y-08600D01*
X09400Y-08600D02*
X10400Y-08600D01*
X06300Y-08600D02*
X07900Y-08600D01*
X38300Y-08500D02*
X38600Y-08500D01*
X29700Y-08500D02*
X30100Y-08500D01*
X19500Y-08500D02*
X19600Y-08500D01*
X11800Y-08500D02*
X17900Y-08500D01*
X09300Y-08500D02*
X10500Y-08500D01*
X06300Y-08500D02*
X08000Y-08500D01*
X38300Y-08400D02*
X38600Y-08400D01*
X29700Y-08400D02*
X30100Y-08400D01*
X11600Y-08400D02*
X17800Y-08400D01*
X09100Y-08400D02*
X10700Y-08400D01*
X06300Y-08400D02*
X08200Y-08400D01*
X38300Y-08300D02*
X38600Y-08300D01*
X29700Y-08300D02*
X30100Y-08300D01*
X06300Y-08300D02*
X17800Y-08300D01*
X38300Y-08200D02*
X38600Y-08200D01*
X29700Y-08200D02*
X30100Y-08200D01*
X06300Y-08200D02*
X17700Y-08200D01*
X38300Y-08100D02*
X38600Y-08100D01*
X29700Y-08100D02*
X30100Y-08100D01*
X06300Y-08100D02*
X17700Y-08100D01*
X38300Y-08000D02*
X38600Y-08000D01*
X29700Y-08000D02*
X30100Y-08000D01*
X06300Y-08000D02*
X17700Y-08000D01*
X38300Y-07900D02*
X38600Y-07900D01*
X29700Y-07900D02*
X30100Y-07900D01*
X06300Y-07900D02*
X17700Y-07900D01*
X38300Y-07800D02*
X38600Y-07800D01*
X29700Y-07800D02*
X30100Y-07800D01*
X06300Y-07800D02*
X17700Y-07800D01*
X38300Y-07700D02*
X38600Y-07700D01*
X29700Y-07700D02*
X30100Y-07700D01*
X06300Y-07700D02*
X17700Y-07700D01*
X38300Y-07600D02*
X38600Y-07600D01*
X29700Y-07600D02*
X30100Y-07600D01*
X06300Y-07600D02*
X17700Y-07600D01*
X38300Y-07500D02*
X38600Y-07500D01*
X29700Y-07500D02*
X30100Y-07500D01*
X06300Y-07500D02*
X17800Y-07500D01*
X38300Y-07400D02*
X38600Y-07400D01*
X29700Y-07400D02*
X30100Y-07400D01*
X06300Y-07400D02*
X17800Y-07400D01*
X38300Y-07300D02*
X38500Y-07300D01*
X29700Y-07300D02*
X30100Y-07300D01*
X19500Y-07300D02*
X19600Y-07300D01*
X06300Y-07300D02*
X17900Y-07300D01*
X38300Y-07200D02*
X38400Y-07200D01*
X29700Y-07200D02*
X30100Y-07200D01*
X19400Y-07200D02*
X19600Y-07200D01*
X06300Y-07200D02*
X18000Y-07200D01*
X19300Y-07100D02*
X38300Y-07100D01*
X06300Y-07100D02*
X18100Y-07100D01*
X19100Y-07000D02*
X38200Y-07000D01*
X06300Y-07000D02*
X18300Y-07000D01*
M02*
